<svg id="Layer_1" data-name="Layer 1" xmlns="http://www.w3.org/2000/svg" viewBox="0 0 241.9256 201.7969"><defs><style>.cls-1{fill:#3caf73;}</style></defs><title>Farm Hero</title><path class="cls-1" d="M65.74,105.1526v40.1568c38.4922,1.4564,59.147-19.3224,110.1679-20.015V83.6812C135.1268,82.4328,99.03,106.193,65.74,105.1526Z" transform="translate(-65.7399 -83.6337)"/><path class="cls-1" d="M156.2591,224.6064V187.409c-36.88-1.7451-58.7665,19.895-90.5192,18.9027v79.05a102.1753,102.1753,0,0,0,27.3637-2.7869V243.5016c12.5793-3.1667,23.6379-8.1593,35.916-11.7724v38.4069c8.4562-1.9586,17.2746-4.2936,27.2395-3.9165V224.6064Z" transform="translate(-65.7399 -83.6337)"/><path class="cls-1" d="M166.0275,135.066c-39.4287-.3137-67.65,21.6485-100.2876,20.6285v40.1567c37.6913,1.4262,59.9915-20.7649,100.2876-19.1881Z" transform="translate(-65.7399 -83.6337)"/><path class="cls-1" d="M185.5229,196.6371H174.03v6.1367H184.5v8.0845H174.03v14.4155h-9.5459V188.5526h21.0391Z" transform="translate(-65.7399 -83.6337)"/><path class="cls-1" d="M212.2113,218.8939H198.5746l-2.1914,6.38H186.2045l13.9775-36.7212h10.4219l13.9776,36.7212H214.4027Zm-2.5322-7.2563-4.2861-12.2241-4.2852,12.2241Z" transform="translate(-65.7399 -83.6337)"/><path class="cls-1" d="M259.3051,225.2738H247.4223L238.3149,211.15v14.1235H228.77V188.5526h14.8536a14.5814,14.5814,0,0,1,5.3574.9014,10.0879,10.0879,0,0,1,6.0146,6.063A12.5661,12.5661,0,0,1,255.75,199.9a10.7739,10.7739,0,0,1-2.0215,6.7939,10.1736,10.1736,0,0,1-5.9658,3.5308Zm-20.99-20.3086h1.8017a6.9624,6.9624,0,0,0,4.335-1.1689,4.4947,4.4947,0,0,0,0-6.7207,6.9624,6.9624,0,0,0-4.335-1.169h-1.8017Z" transform="translate(-65.7399 -83.6337)"/><path class="cls-1" d="M261.643,225.2738l6.2334-36.7212h9.4482l7.3545,19.5781,7.3047-19.5781h9.4482l6.2334,36.7212h-9.496l-3.1661-21.1362-8.6689,21.1362h-3.7988l-8.2305-21.1362-3.165,21.1362Z" transform="translate(-65.7399 -83.6337)"/><path class="cls-1" d="M174.03,244.5057h13.7822V230.3334h9.5459v36.7212h-9.5459v-15.146H174.03v15.146h-9.5459V230.3334H174.03Z" transform="translate(-65.7399 -83.6337)"/><path class="cls-1" d="M225.9447,238.4179H214.5971v6.1367h10.7148v8.0845H214.5971v6.331h11.3476v8.0845H205.0522V230.3334h20.8925Z" transform="translate(-65.7399 -83.6337)"/><path class="cls-1" d="M263.3471,267.0546H251.4643l-9.1074-14.1236v14.1236h-9.545V230.3334h14.8535a14.5819,14.5819,0,0,1,5.3575.9014,10.0874,10.0874,0,0,1,6.0146,6.0629,12.5688,12.5688,0,0,1,.7549,4.3833,10.774,10.774,0,0,1-2.0215,6.794,10.1735,10.1735,0,0,1-5.9658,3.5307Zm-20.99-20.3086h1.8017a6.9624,6.9624,0,0,0,4.335-1.169,4.4947,4.4947,0,0,0,0-6.7207,6.9624,6.9624,0,0,0-4.335-1.1689h-1.8017Z" transform="translate(-65.7399 -83.6337)"/><path class="cls-1" d="M265.0033,248.6942a18.9219,18.9219,0,0,1,12.1026-17.8979,23.3423,23.3423,0,0,1,16.3877,0,19.3567,19.3567,0,0,1,6.4531,4.1152,18.848,18.848,0,0,1,4.2129,6.1607,19.9932,19.9932,0,0,1,0,15.2436,18.8344,18.8344,0,0,1-4.2129,6.1607,19.3426,19.3426,0,0,1-6.4531,4.1152,23.3365,23.3365,0,0,1-16.3877,0,18.9928,18.9928,0,0,1-12.1026-17.8975Zm9.9834,0a9.7694,9.7694,0,0,0,.8282,4.042,10.11,10.11,0,0,0,5.5273,5.333,10.8126,10.8126,0,0,0,7.9385,0,10.4044,10.4044,0,0,0,3.3115-2.1186,10.0148,10.0148,0,0,0,2.2647-3.2144,10.28,10.28,0,0,0,0-8.0845,10.0362,10.0362,0,0,0-2.2647-3.2143,10.4292,10.4292,0,0,0-3.3115-2.1182,10.8126,10.8126,0,0,0-7.9385,0,10.1081,10.1081,0,0,0-5.5273,5.3325A9.7754,9.7754,0,0,0,274.9867,248.6942Z" transform="translate(-65.7399 -83.6337)"/></svg>