<svg id="Layer_1" data-name="Layer 1" xmlns="http://www.w3.org/2000/svg" viewBox="0 0 24 24"><defs><style>.cls-1{fill:#3cae73;}</style></defs><path class="cls-1" d="M13.2,1.37a.61.61,0,0,1,.62.61V4.21a.42.42,0,0,0,.3.39,7.39,7.39,0,0,1,1.61.67.54.54,0,0,0,.21.05.39.39,0,0,0,.28-.12l1.57-1.57a.64.64,0,0,1,.44-.18.62.62,0,0,1,.44.18l1.7,1.7a.63.63,0,0,1,0,.88L18.8,7.78a.4.4,0,0,0-.07.48,7.68,7.68,0,0,1,.67,1.62.42.42,0,0,0,.39.3H22a.61.61,0,0,1,.61.62v2.4a.61.61,0,0,1-.61.62H19.79a.42.42,0,0,0-.39.3,7.39,7.39,0,0,1-.67,1.61.42.42,0,0,0,.07.49l1.57,1.57a.63.63,0,0,1,0,.88l-1.7,1.7a.62.62,0,0,1-.44.18.64.64,0,0,1-.44-.18L16.22,18.8a.4.4,0,0,0-.29-.12.45.45,0,0,0-.19.05,7.68,7.68,0,0,1-1.62.67.42.42,0,0,0-.3.39V22a.61.61,0,0,1-.62.61H10.8a.61.61,0,0,1-.62-.61V19.79a.42.42,0,0,0-.3-.39,7.39,7.39,0,0,1-1.61-.67.5.5,0,0,0-.21-.05.39.39,0,0,0-.28.12L6.21,20.37a.63.63,0,0,1-.88,0l-1.7-1.7a.63.63,0,0,1,0-.88L5.2,16.22a.4.4,0,0,0,.07-.48,7.68,7.68,0,0,1-.67-1.62.42.42,0,0,0-.39-.3H2a.61.61,0,0,1-.61-.62V10.8A.61.61,0,0,1,2,10.18H4.21a.42.42,0,0,0,.39-.3,7.39,7.39,0,0,1,.67-1.61.42.42,0,0,0-.07-.49L3.63,6.21a.63.63,0,0,1,0-.88l1.7-1.7a.63.63,0,0,1,.88,0L7.78,5.2a.4.4,0,0,0,.29.12.45.45,0,0,0,.19-.05A7.68,7.68,0,0,1,9.88,4.6a.42.42,0,0,0,.3-.39V2a.61.61,0,0,1,.62-.61h2.4M12,15.65A3.65,3.65,0,1,0,8.35,12,3.64,3.64,0,0,0,12,15.65M13.2,0H10.8a2,2,0,0,0-2,2V3.52a5.31,5.31,0,0,0-.55.23L7.17,2.66a2,2,0,0,0-2.8,0L2.66,4.37a2,2,0,0,0,0,2.8L3.75,8.25c-.09.19-.16.37-.23.56H2a2,2,0,0,0-2,2v2.4a2,2,0,0,0,2,2H3.52c.07.19.14.37.23.56L2.66,16.83a2,2,0,0,0-.58,1.4,1.94,1.94,0,0,0,.59,1.4l1.7,1.71a2,2,0,0,0,2.8,0l1.09-1.09a5.31,5.31,0,0,0,.55.23V22a2,2,0,0,0,2,2h2.4a2,2,0,0,0,2-2V20.48c.19-.07.37-.14.56-.23l1.08,1.09a2,2,0,0,0,2.81,0l1.7-1.7a2,2,0,0,0,0-2.8l-1.09-1.08c.09-.19.16-.37.23-.56H22a2,2,0,0,0,2-2V10.8a2,2,0,0,0-2-2H20.48a5.31,5.31,0,0,0-.23-.55l1.09-1.09a2,2,0,0,0,0-2.8L19.63,2.66a2,2,0,0,0-2.8,0L15.75,3.75c-.19-.09-.37-.16-.56-.23V2a2,2,0,0,0-2-2ZM12,14.29A2.29,2.29,0,1,1,14.29,12,2.3,2.3,0,0,1,12,14.29Z"/></svg>