<svg id="Layer_1" data-name="Layer 1" xmlns="http://www.w3.org/2000/svg" viewBox="0 0 24 24"><defs><style>.cls-1{fill:#3cae73;}</style></defs><path class="cls-1" d="M22.9.92A3.35,3.35,0,0,0,20.69,0H3.31A3.3,3.3,0,0,0,1.12.92,3.12,3.12,0,0,0,.25,3.17V4h1V23.29a.71.71,0,0,0,.71.71H22.07a.71.71,0,0,0,.71-.71V4h1v-.8A3.1,3.1,0,0,0,22.9.92ZM2.26,2a1.75,1.75,0,0,1,1.05-.48H20.69a1.51,1.51,0,0,1,1,.44l.15.21s.07.08.08.13H2a1,1,0,0,1,.13-.17ZM20.52,22.47h-17a.71.71,0,0,1-.71-.72V4H21.23V21.75A.71.71,0,0,1,20.52,22.47Z"/><path class="cls-1" d="M17.91,8.64a1.51,1.51,0,0,0-1.11-.52H7.21a1.46,1.46,0,0,0-1.07.5A1.25,1.25,0,0,0,5.7,9.73v1.53a1.39,1.39,0,0,0,.42,1.11,1.48,1.48,0,0,0,1.09.4H16.8a1.51,1.51,0,0,0,1.11-.4,1.56,1.56,0,0,0,.48-1.11V9.73A1.26,1.26,0,0,0,17.91,8.64ZM7.25,11.16V9.73l0,0,9.47,0h0v1.57H7.33v-.08Z"/></svg>