<svg id="Layer_1" data-name="Layer 1" xmlns="http://www.w3.org/2000/svg" viewBox="0 0 24 24"><defs><style>.cls-1{fill:#3cae73;}</style></defs><path class="cls-1" d="M20.7,18.33l2.55-.07a.69.69,0,0,1,.71.68.71.71,0,0,1-.28.58.68.68,0,0,1-.4.13l-4.38.12-2.12-4.26A.7.7,0,0,1,18,14.89l1.4,2.82A9.34,9.34,0,0,0,8.06,4.05a.7.7,0,0,1-.91-.39.69.69,0,0,1,.39-.9A10.74,10.74,0,0,1,20.7,18.33Z"/><path class="cls-1" d="M16.85,20.69a.7.7,0,0,1-.24.82l-.15.09A10.74,10.74,0,0,1,3.3,6L.75,6.1a.7.7,0,0,1,0-1.4L5.1,4.58,7.22,8.84A.71.71,0,0,1,7,9.71l-.11.07A.69.69,0,0,1,6,9.46L4.57,6.64A9.34,9.34,0,0,0,15.94,20.3.7.7,0,0,1,16.85,20.69Z"/></svg>