<svg id="Layer_1" data-name="Layer 1" xmlns="http://www.w3.org/2000/svg" viewBox="0 0 24 24"><defs><style>.cls-1{fill:#3cae73;}</style></defs><path class="cls-1" d="M20.79,6.79c.59-.07.95-.13,1-.14a.62.62,0,0,0,.5-.73.61.61,0,0,0-.73-.5,18.94,18.94,0,0,1-8.91-.75,1.51,1.51,0,0,0,.79-1.32,1.52,1.52,0,1,0-3,0,1.5,1.5,0,0,0,.78,1.32,19,19,0,0,1-8.92.75.62.62,0,0,0-.73.5.63.63,0,0,0,.5.73c.06,0,.49.09,1.17.15L.2,12a3.51,3.51,0,0,0,7,0L4.26,6.88c.33,0,.69,0,1.07,0A18.45,18.45,0,0,0,11.08,6V18.25H9.79a1.94,1.94,0,0,0-1.95,1.94H16a1.94,1.94,0,0,0-2-1.94H12.74V6a18.45,18.45,0,0,0,5.75.87c.46,0,.88,0,1.26,0l-3,5.12a3.51,3.51,0,0,0,7,0Zm-15,4.36H1.65L3.7,7.6ZM11.92,4a.69.69,0,0,1-.69-.69.69.69,0,1,1,.69.69ZM20.29,7.6l2.06,3.55H18.24Z"/></svg>