<svg id="Layer_1" data-name="Layer 1" xmlns="http://www.w3.org/2000/svg" viewBox="0 0 24 24"><defs><style>.cls-1{fill:#3cae73;}</style></defs><g id="_01_align_center" data-name=" 01 align center"><path class="cls-1" d="M23.05,16.1,20.51,7a9.09,9.09,0,0,0-17.63.46l-2,8.82a2.93,2.93,0,0,0,2.23,3.49,2.65,2.65,0,0,0,.63.07H7.29a4.88,4.88,0,0,0,9.56,0h3.38a2.93,2.93,0,0,0,2.93-2.92,2.88,2.88,0,0,0-.11-.78Zm-11,5.65A2.91,2.91,0,0,1,9.32,19.8h5.49A2.91,2.91,0,0,1,12.07,21.75ZM21,17.47a1,1,0,0,1-.78.38H3.77a1,1,0,0,1-1-1,.71.71,0,0,1,0-.21l2-8.83a7.14,7.14,0,0,1,13.85-.36l2.54,9.14A1,1,0,0,1,21,17.47Z"/></g></svg>