<svg id="Layer_1" data-name="Layer 1" xmlns="http://www.w3.org/2000/svg" viewBox="0 0 24 24"><defs><style>.cls-1{fill:#3cae73;}</style></defs><path class="cls-1" d="M11.64,4.92a9.42,9.42,0,1,0,9.42,9.42A9.44,9.44,0,0,0,11.64,4.92Zm0,16.11a6.69,6.69,0,1,1,6.69-6.69A6.7,6.7,0,0,1,11.64,21Z"/><rect class="cls-1" x="2.89" y="0.78" width="6.57" height="3.76" rx="1.32" transform="translate(-0.55 2.87) rotate(-25.07)"/><rect class="cls-1" x="15.18" y="-0.62" width="3.76" height="6.57" rx="1.32" transform="translate(7.42 16.99) rotate(-64.93)"/><path class="cls-1" d="M15.47,13.87H12.25a.66.66,0,0,0-.15-.14h0V9.59a.49.49,0,0,0-.49-.49h0a.49.49,0,0,0-.49.49v4.14h0a.77.77,0,0,0-.33.63.81.81,0,0,0,.81.81.8.8,0,0,0,.6-.28h3.25A.49.49,0,0,0,16,14.4v0A.49.49,0,0,0,15.47,13.87Z"/></svg>