<svg id="Layer_1" data-name="Layer 1" xmlns="http://www.w3.org/2000/svg" viewBox="0 0 24 24"><defs><style>.cls-1{fill:#3cae73;}</style></defs><path class="cls-1" d="M11.37,11.36H.05v-8A3.3,3.3,0,0,1,3.35,0h8ZM1.6,9.81H9.82V1.59H3.35A1.76,1.76,0,0,0,1.6,3.34Z"/><path class="cls-1" d="M23.93,11.36H12.61V0h8a3.31,3.31,0,0,1,3.31,3.3ZM14.16,9.81h8.22V3.34a1.76,1.76,0,0,0-1.76-1.75H14.16Z"/><path class="cls-1" d="M20.62,23.92H3.35a3.31,3.31,0,0,1-3.3-3.31v-8H23.93v8A3.31,3.31,0,0,1,20.62,23.92Zm-19-9.77v6.46a1.76,1.76,0,0,0,1.75,1.76H20.62a1.76,1.76,0,0,0,1.76-1.76V14.15Z"/></svg>