<svg id="Layer_1" data-name="Layer 1" xmlns="http://www.w3.org/2000/svg" viewBox="0 0 24 24"><defs><style>.cls-1{fill:#3cae73;}</style></defs><path class="cls-1" d="M8,11.54H3.3A3.3,3.3,0,0,1,0,8.24V3.55A3.3,3.3,0,0,1,3.3.25H8a3.3,3.3,0,0,1,3.29,3.3V8.24A3.3,3.3,0,0,1,8,11.54ZM3.3,1.8A1.75,1.75,0,0,0,1.55,3.55V8.24A1.75,1.75,0,0,0,3.3,10H8A1.75,1.75,0,0,0,9.74,8.24V3.55A1.76,1.76,0,0,0,8,1.8Z"/><path class="cls-1" d="M20.51,11.54H15.82a3.3,3.3,0,0,1-3.3-3.3V3.55a3.3,3.3,0,0,1,3.3-3.3h4.69a3.3,3.3,0,0,1,3.29,3.3V8.24A3.3,3.3,0,0,1,20.51,11.54ZM15.82,1.8a1.75,1.75,0,0,0-1.75,1.75V8.24A1.75,1.75,0,0,0,15.82,10h4.69a1.75,1.75,0,0,0,1.75-1.75V3.55A1.76,1.76,0,0,0,20.51,1.8Z"/><path class="cls-1" d="M8,24H3.3A3.3,3.3,0,0,1,0,20.7V16a3.3,3.3,0,0,1,3.3-3.29H8A3.3,3.3,0,0,1,11.28,16V20.7A3.3,3.3,0,0,1,8,24ZM3.3,14.26A1.75,1.75,0,0,0,1.55,16V20.7A1.75,1.75,0,0,0,3.3,22.45H8A1.75,1.75,0,0,0,9.74,20.7V16A1.76,1.76,0,0,0,8,14.26Z"/><path class="cls-1" d="M20.51,24H15.82a3.3,3.3,0,0,1-3.3-3.3V16a3.3,3.3,0,0,1,3.3-3.29h4.69A3.3,3.3,0,0,1,23.8,16V20.7A3.3,3.3,0,0,1,20.51,24Zm-4.69-9.74A1.75,1.75,0,0,0,14.07,16V20.7a1.75,1.75,0,0,0,1.75,1.75h4.69a1.75,1.75,0,0,0,1.75-1.75V16a1.76,1.76,0,0,0-1.75-1.75Z"/></svg>