<svg id="Layer_1" data-name="Layer 1" xmlns="http://www.w3.org/2000/svg" viewBox="0 0 24 24"><defs><style>.cls-1{fill:#3cae73;}</style></defs><path class="cls-1" d="M23.89,13.24a5.47,5.47,0,0,0-5.46-5.46H14.52V3.72H.11V20H3.92a2.33,2.33,0,0,1,4.66,0h8.3a2.33,2.33,0,0,1,4.66,0h2.35ZM13.3,18.73H9.58a3.54,3.54,0,0,0-6.66,0H1.33V5h12V18.73Zm9.37,0h-.13a3.54,3.54,0,0,0-6.66,0H14.52V9h3.91a4.24,4.24,0,0,1,4.24,4.24Z"/><circle class="cls-1" cx="6.25" cy="19.95" r="1.48"/><circle class="cls-1" cx="19.21" cy="19.95" r="1.48"/></svg>