<svg id="Layer_1" data-name="Layer 1" xmlns="http://www.w3.org/2000/svg" viewBox="0 0 24 24"><defs><style>.cls-1{fill:#3cae73;}</style></defs><g id="_01_align_center" data-name=" 01 align center"><path class="cls-1" d="M20.81,2h-3V0h-2V2H8V0H6V2H3A3,3,0,0,0,0,5V23.74H23.78V5A3,3,0,0,0,20.81,2ZM2,5A1,1,0,0,1,3,4H20.81a1,1,0,0,1,1,1v3H2ZM2,21.77V9.89H21.8V21.77Z"/><rect class="cls-1" x="14.87" y="12.86" width="1.98" height="1.98"/><rect class="cls-1" x="10.91" y="12.86" width="1.98" height="1.98"/><rect class="cls-1" x="6.96" y="12.86" width="1.98" height="1.98"/><rect class="cls-1" x="14.87" y="16.82" width="1.98" height="1.98"/><rect class="cls-1" x="10.91" y="16.82" width="1.98" height="1.98"/><rect class="cls-1" x="6.96" y="16.82" width="1.98" height="1.98"/></g></svg>