<svg id="Layer_1" data-name="Layer 1" xmlns="http://www.w3.org/2000/svg" viewBox="0 0 24 24"><defs><style>.cls-1{fill:#3cae73;}</style></defs><path class="cls-1" d="M12,13.73A4.3,4.3,0,1,0,7.71,9.44,4.29,4.29,0,0,0,12,13.73ZM12,7A2.48,2.48,0,1,1,9.53,9.44,2.48,2.48,0,0,1,12,7Z"/><path class="cls-1" d="M12,0A9.45,9.45,0,0,0,2.56,9.44,16,16,0,0,0,6.85,19.86a22,22,0,0,0,4.23,3.81A1.66,1.66,0,0,0,12,24a1.62,1.62,0,0,0,.9-.27,21.71,21.71,0,0,0,4.25-3.82A16,16,0,0,0,21.44,9.44,9.45,9.45,0,0,0,12,0Zm0,1.82a7.62,7.62,0,0,1,7.61,7.62,14.24,14.24,0,0,1-3.84,9.23A19.94,19.94,0,0,1,12,22.08a21.31,21.31,0,0,1-3.75-3.41A14.24,14.24,0,0,1,4.39,9.44,7.62,7.62,0,0,1,12,1.82Z"/></svg>