<svg id="Layer_1" data-name="Layer 1" xmlns="http://www.w3.org/2000/svg" viewBox="0 0 24 24"><defs><style>.cls-1{fill:#3cae73;}</style></defs><path class="cls-1" d="M19.92,16.29H5.86A.91.91,0,0,1,5,15.64l-2.18-7a.82.82,0,0,1,1.56-.48l2,6.48h13.2l.5-1.55h-12a.92.92,0,0,1-.88-.63L6.32,9.8a.92.92,0,0,1,.87-1.2H21.52l.57-1.67H2.6a1.05,1.05,0,0,1-1-.74L.31,2.09a.83.83,0,0,1,.54-1,.82.82,0,0,1,1,.54L3,5.3H23.09a.91.91,0,0,1,.74.38A.89.89,0,0,1,24,6.5l-1,3.05a1,1,0,0,1-1,.68H8.17l.4,1.25h12.5a.88.88,0,0,1,.73.38.9.9,0,0,1,.13.81L21,15.49A1.15,1.15,0,0,1,19.92,16.29Zm3.17-9.36Z"/><circle class="cls-1" cx="8.59" cy="19.43" r="1.99"/><circle class="cls-1" cx="16.61" cy="19.43" r="1.99"/></svg>