<svg id="Layer_1" data-name="Layer 1" xmlns="http://www.w3.org/2000/svg" viewBox="0 0 24 24"><defs><style>.cls-1{fill:#bfc4d7;}.cls-2{fill:#2d4554;}</style></defs><path class="cls-1" d="M4.68,7.29v8h3v-8m0,0-3,0v8h3v-8Z"/><path class="cls-1" d="M9.6,7.29v8h4.06v-8m0,0-4.06,0v8h4.06v-8Z"/><path class="cls-1" d="M15.65,7.29v8h3v-8m0,0-3,0v8h3v-8Z"/><path class="cls-2" d="M23.17,6.26c0-.36-.51-.56-1.19-1L13.35.79A3.71,3.71,0,0,0,10,.79L1.35,5.29c-.44.24-1,.45-1.12.79a.89.89,0,0,0,0,.78A.81.81,0,0,0,1,7.29H22.35a.83.83,0,0,0,.75-.43A.88.88,0,0,0,23.17,6.26Z"/><path class="cls-2" d="M21.66,15.29h-1v-8h-2v8h-3v-8h-2v8h-4v-8h-2v8h-3v-8h-2v8h-1a1,1,0,0,0,0,2h20a1,1,0,1,0,0-2Z"/><path class="cls-2" d="M22.66,21.84a1,1,0,0,1-.91,1H1.58a1,1,0,0,1,0-2H21.75A1,1,0,0,1,22.66,21.84Z"/></svg>