<svg id="Layer_1" data-name="Layer 1" xmlns="http://www.w3.org/2000/svg" viewBox="0 0 24 24"><defs><style>.cls-1{fill:#3cae73;}.cls-2{fill:#fff;}</style></defs><circle class="cls-1" cx="12.03" cy="12" r="12"/><g id="_01_align_center" data-name=" 01 align center"><path class="cls-2" d="M12.48,8.06h-1a1,1,0,0,0-1,1v7.72h2.9V9A1,1,0,0,0,12.48,8.06Z"/><path class="cls-2" d="M16.83,5.17h-1a1,1,0,0,0-1,1V16.75h2.89V6.13A1,1,0,0,0,16.83,5.17Z"/><path class="cls-2" d="M8.14,11h-1a1,1,0,0,0-1,1v4.83h2.9V11.92A1,1,0,0,0,8.14,11Z"/></g></svg>