<svg id="Layer_1" data-name="Layer 1" xmlns="http://www.w3.org/2000/svg" viewBox="0 0 24 24"><defs><style>.cls-1{fill:#2d4554;}.cls-2{fill:#d4d5db;}.cls-3{fill:#ebeff2;}.cls-4{fill:#fad362;}.cls-5{fill:#f4c158;}.cls-6{fill:#3cae73;}.cls-7{fill:#da8642;}</style></defs><path class="cls-1" d="M13.42,21.87a1.21,1.21,0,0,0,1.2,1.21h7.47a1.21,1.21,0,0,0,1.2-1.21v-1.8H13.42Z"/><path class="cls-1" d="M22.09,7H14.62a1.2,1.2,0,0,0-1.2,1.2V9.43h9.87V8.22A1.2,1.2,0,0,0,22.09,7Z"/><rect class="cls-2" x="13.42" y="9.42" width="9.88" height="10.64"/><path class="cls-1" d="M.71,15.35a1.2,1.2,0,0,0,1.2,1.2H9.38a1.2,1.2,0,0,0,1.2-1.2V13.84H.71Z"/><path class="cls-1" d="M10.58,1.69A1.2,1.2,0,0,0,9.38.49H1.91a1.2,1.2,0,0,0-1.2,1.2V3.2h9.87Z"/><rect class="cls-2" x="0.71" y="3.2" width="9.88" height="10.64"/><circle class="cls-2" cx="5.64" cy="15.2" r="0.83"/><circle class="cls-2" cx="18.35" cy="21.57" r="0.83"/><circle class="cls-3" cx="18.35" cy="21.57" r="0.51"/><circle class="cls-3" cx="5.64" cy="15.2" r="0.51"/><circle class="cls-4" cx="5.64" cy="8.52" r="3.31"/><circle class="cls-5" cx="5.64" cy="8.52" r="2.63"/><path class="cls-6" d="M19.51,4A.38.38,0,0,0,19,4l-.28.27V2A1.53,1.53,0,0,0,17.16.46H14a.38.38,0,0,0,0,.76h3.13a.77.77,0,0,1,.77.77V4.25L17.65,4a.38.38,0,0,0-.54.54l.93.93a.57.57,0,0,0,.13.08.32.32,0,0,0,.14,0l.15,0a.5.5,0,0,0,.12-.08l.93-.93A.38.38,0,0,0,19.51,4Z"/><path class="cls-7" d="M6.54,9.37a1.18,1.18,0,1,1-.83-2,1.14,1.14,0,0,1,.83.35l.27-.28a1.57,1.57,0,0,0-1-.45V6.22H5.44V7a1.56,1.56,0,0,0,0,3.08v.75h.38v-.73a1.52,1.52,0,0,0,1-.45Z"/></svg>