<svg id="Layer_1" data-name="Layer 1" xmlns="http://www.w3.org/2000/svg" viewBox="0 0 24 24"><defs><style>.cls-1{fill:#3cae73;}</style></defs><path class="cls-1" d="M22.17,6.34V17.93a3.66,3.66,0,0,1-3.66,3.66h-13a3.66,3.66,0,0,1-3.66-3.66V8.08A5.47,5.47,0,0,1,7.29,2.62h10L19,.79H7.29A7.29,7.29,0,0,0,0,8.08v9.85a5.49,5.49,0,0,0,5.49,5.49h13A5.49,5.49,0,0,0,24,17.93V4.41Z"/><rect class="cls-1" x="5.33" y="7.32" width="21.04" height="2.48" rx="1.24" transform="translate(-1.26 14.18) rotate(-46.55)"/><path class="cls-1" d="M10.26,16.26,7.8,17.6a.4.4,0,0,1-.55-.52l1.21-2.52Z"/></svg>