<svg id="Layer_1" data-name="Layer 1" xmlns="http://www.w3.org/2000/svg" viewBox="0 0 24 24"><defs><style>.cls-1{fill:#229071;}</style></defs><g id="_01_align_center" data-name=" 01 align center"><path class="cls-1" d="M21,23.86l-3.66-2.51-2.67,1.83L12,21.35,9.34,23.18,6.67,21.35,3,23.86V3A3,3,0,0,1,6,0H18a3,3,0,0,1,3,3ZM6.67,18.93l2.67,1.82L12,18.93l2.66,1.82,2.67-1.82L19,20.06V3a1,1,0,0,0-1-1H6A1,1,0,0,0,5,3v17.1Z"/><rect class="cls-1" x="7" y="7.96" width="10" height="2"/><rect class="cls-1" x="7" y="11.96" width="8" height="2"/></g></svg>