<svg id="Layer_1" data-name="Layer 1" xmlns="http://www.w3.org/2000/svg" viewBox="0 0 24 24"><defs><style>.cls-1{fill:#3cae73;}</style></defs><g id="_01_align_center" data-name=" 01 align center"><path class="cls-1" d="M19.34,14.65a4.66,4.66,0,0,0-3.84,2L9,13.74a4.59,4.59,0,0,0,0-3.49L15.5,7.3a4.64,4.64,0,1,0-.83-2.64,5.16,5.16,0,0,0,.08.79L7.85,8.58a4.67,4.67,0,1,0,0,6.82l6.92,3.13a5.14,5.14,0,0,0-.07.78,4.66,4.66,0,1,0,4.66-4.66ZM19.34,2a2.67,2.67,0,1,1-2.67,2.66h0A2.67,2.67,0,0,1,19.34,2ZM4.69,14.65A2.67,2.67,0,1,1,7.35,12h0A2.66,2.66,0,0,1,4.69,14.65ZM19.34,22A2.67,2.67,0,1,1,22,19.31h0A2.67,2.67,0,0,1,19.34,22Z"/></g></svg>