<svg id="Layer_1" data-name="Layer 1" xmlns="http://www.w3.org/2000/svg" viewBox="0 0 24 24"><defs><style>.cls-1{fill:#3cae73;}.cls-2{fill:#fff;}</style></defs><circle class="cls-1" cx="12" cy="12" r="12"/><path class="cls-2" d="M4.74,13.14a2.22,2.22,0,0,0,4.43,0Z"/><path class="cls-2" d="M19.5,12,17.68,8.84a7.8,7.8,0,0,0,.78-.1.39.39,0,0,0,.32-.46A.4.4,0,0,0,18.32,8a11.89,11.89,0,0,1-5.65-.47,1,1,0,0,0-.46-1.8,1,1,0,0,0-1,1,1,1,0,0,0,.5.84A11.89,11.89,0,0,1,6.09,8a.4.4,0,0,0-.46.32A.39.39,0,0,0,6,8.74a7.74,7.74,0,0,0,.88.11L5,12H9L7.2,8.88q.38,0,.84,0a11.62,11.62,0,0,0,3.63-.55V16.7a.53.53,0,0,0,1.06,0V8.35a11.42,11.42,0,0,0,3.64.56c.36,0,.67,0,1,0L15.52,12Zm-14-.26L7,9.08l1.53,2.65Zm6.73-5.51a.43.43,0,0,1,.43.43.44.44,0,0,1-.43.44.44.44,0,0,1-.44-.44A.44.44,0,0,1,12.21,6.22ZM16,11.73l1.53-2.65L19,11.73Z"/><path class="cls-2" d="M15.24,13.14a2.22,2.22,0,0,0,4.44,0Z"/><path class="cls-2" d="M9.63,17.32h0a1.23,1.23,0,0,1,1.23-1.23h2.69a1.23,1.23,0,0,1,1.23,1.23H9.63Z"/></svg>