<svg id="Layer_1" data-name="Layer 1" xmlns="http://www.w3.org/2000/svg" viewBox="0 0 24 24"><defs><style>.cls-1{fill:#f4c158;}</style></defs><path class="cls-1" d="M5.37,23.48a1.27,1.27,0,0,1-.75-.25,1.26,1.26,0,0,1-.52-1.07l.21-6.6-4-5.19A1.26,1.26,0,0,1,.06,9.2a1.28,1.28,0,0,1,.86-.83L7.27,6.53,11,1.08a1.26,1.26,0,0,1,2.1,0l3.71,5.47,6.32,1.82a1.28,1.28,0,0,1,.86.83,1.26,1.26,0,0,1-.21,1.17l-4.06,5.22.23,6.57a1.27,1.27,0,0,1-1.7,1.24L12,21.15,5.8,23.4A1.31,1.31,0,0,1,5.37,23.48Zm-4-13.86,4,5.16a1.26,1.26,0,0,1,.26.82l-.21,6.54,6.15-2.23a1.27,1.27,0,0,1,.86,0l6.15,2.23-.21-6.54a1.2,1.2,0,0,1,.26-.82l4-5.16L16.37,7.8a1.21,1.21,0,0,1-.7-.51L12,1.86,8.33,7.29a1.24,1.24,0,0,1-.7.51ZM12,1.82Z"/></svg>