<svg id="Layer_1" data-name="Layer 1" xmlns="http://www.w3.org/2000/svg" viewBox="0 0 24 24"><defs><style>.cls-1{fill:#3cae73;}</style></defs><path class="cls-1" d="M21.23,10.27h-.66V7.4h0V7.09l-.21-.21v0L13.88.37h0L13.65.15H3.13A1.86,1.86,0,0,0,1.27,2V22a1.86,1.86,0,0,0,1.86,1.86H18.71A1.86,1.86,0,0,0,20.57,22v-2.1h.66a1.86,1.86,0,0,0,1.86-1.86V12.13A1.86,1.86,0,0,0,21.23,10.27ZM14.09,2.7l3.95,4-3.95,0Zm5,19.33a.37.37,0,0,1-.37.37H3.13A.37.37,0,0,1,2.76,22V2a.36.36,0,0,1,.37-.37H12.6V8.19l6.48,0v2.12H8.37a1.86,1.86,0,0,0-1.86,1.86v5.94a1.86,1.86,0,0,0,1.86,1.86H19.08Zm2.52-4a.36.36,0,0,1-.37.37H8.37A.36.36,0,0,1,8,18.07V12.13a.36.36,0,0,1,.37-.37H21.23a.36.36,0,0,1,.37.37Z"/><path class="cls-1" d="M12,13.58H10.58v3.14h.93v-.84H12a1.3,1.3,0,0,0,.94-.31,1.08,1.08,0,0,0,.34-.86,1,1,0,0,0-.34-.83A1.39,1.39,0,0,0,12,13.58Zm.28,1.47a.44.44,0,0,1-.32.11h-.45V14.3H12a.4.4,0,0,1,.32.11.4.4,0,0,1,.12.31A.45.45,0,0,1,12.28,15.05Z"/><path class="cls-1" d="M15.9,13.78a2,2,0,0,0-.89-.2H13.64v3.14H15a2,2,0,0,0,.9-.19,1.41,1.41,0,0,0,.6-.56,1.5,1.5,0,0,0,.22-.82,1.56,1.56,0,0,0-.21-.82A1.42,1.42,0,0,0,15.9,13.78Zm-.35,2A.65.65,0,0,1,15,16h-.47V14.32H15a.68.68,0,0,1,.55.23.87.87,0,0,1,.21.61A.89.89,0,0,1,15.55,15.76Z"/><polygon class="cls-1" points="17.05 16.72 17.98 16.72 17.98 15.64 19.38 15.64 19.38 14.93 17.98 14.93 17.98 14.3 19.48 14.3 19.48 13.58 17.05 13.58 17.05 16.72"/></svg>