<svg id="Layer_1" data-name="Layer 1" xmlns="http://www.w3.org/2000/svg" viewBox="0 0 24 24"><defs><style>.cls-1{fill:#a0663b;}.cls-2{fill:#d38952;}.cls-3{fill:#e59e64;}.cls-4{fill:#7f492b;}.cls-5{fill:#eba774;}</style></defs><polygon class="cls-1" points="11.99 10.47 11.99 0.05 23.66 6.79 23.66 17.21 11.99 10.47"/><polygon class="cls-2" points="11.99 10.47 11.99 0.05 0.34 6.79 0.34 17.21 11.99 10.47"/><polygon class="cls-3" points="11.99 13.53 11.99 23.95 0.34 17.21 0.34 6.79 11.99 13.53"/><path class="cls-4" d="M.34,6.79,12,13.53A125.12,125.12,0,0,1,.34,6.79Z"/><polygon class="cls-2" points="11.99 13.53 11.99 23.95 23.66 17.21 23.66 6.79 11.99 13.53"/><polygon class="cls-5" points="23.66 6.81 12.04 13.56 0.34 6.81 11.96 0.05 23.66 6.81"/><polygon class="cls-4" points="6.28 10.24 17.91 3.48 17.47 3.23 5.84 9.99 6.28 10.24"/></svg>