<svg id="Layer_1" data-name="Layer 1" xmlns="http://www.w3.org/2000/svg" viewBox="0 0 24 24"><defs><style>.cls-1{fill:#30302f;}.cls-2{fill:#4a4a4a;}.cls-3{fill:#959595;}.cls-4{fill:#fff;}.cls-5{fill:#383838;}.cls-6{fill:#262626;}.cls-7{fill:#70c391;}.cls-8{fill:#6b6b6b;}.cls-9{fill:#5b5b5c;}.cls-10{fill:#8b8b8b;}.cls-11{fill:#cbcbca;}.cls-12{fill:#a4a3a3;}.cls-13{fill:#bababa;}.cls-14{fill:#cdcdcd;}.cls-15{fill:#ececec;}.cls-16{fill:#3cae73;}.cls-17{fill:#138453;}.cls-18{fill:#fbb976;}.cls-19{fill:#8a99cd;}.cls-20{fill:#98a8d6;}.cls-21{fill:#7c77ac;}</style></defs><polygon class="cls-1" points="12.12 14.63 13.1 15.2 13.1 16.2 12.12 15.64 12.12 14.63"/><path class="cls-1" d="M22.3,9.69a2.12,2.12,0,0,1-.89,1.7c-.49.29-.89,0-.89-.67A2.14,2.14,0,0,1,21.41,9C21.9,8.74,22.3,9,22.3,9.69Z"/><polygon class="cls-1" points="21.5 11.82 20.86 11.45 22.01 8.98 22.63 9.33 21.5 11.82"/><path class="cls-2" d="M23,10.07a2.15,2.15,0,0,1-.89,1.7c-.49.28-.89,0-.89-.68a2.15,2.15,0,0,1,.89-1.7C22.57,9.11,23,9.41,23,10.07Z"/><path class="cls-3" d="M22.66,10.27a1.38,1.38,0,0,1-.58,1.1c-.32.18-.58,0-.58-.44a1.38,1.38,0,0,1,.58-1.1C22.4,9.65,22.66,9.84,22.66,10.27Z"/><path class="cls-4" d="M22.49,10.36a1,1,0,0,1-.41.79c-.23.13-.41,0-.41-.31a1,1,0,0,1,.41-.79C22.31,9.92,22.49,10.06,22.49,10.36Z"/><path class="cls-5" d="M22.28,10.48a.5.5,0,0,1-.2.39c-.11.06-.2,0-.2-.15a.5.5,0,0,1,.2-.39C22.19,10.27,22.28,10.34,22.28,10.48Z"/><path class="cls-5" d="M22.12,10.17a.1.1,0,0,1,0,.07s0,0,0,0a.08.08,0,0,1,0-.07S22.12,10.14,22.12,10.17Z"/><path class="cls-5" d="M22.38,10.17a.1.1,0,0,1,0,.07s0,0,0,0a.08.08,0,0,1,0-.07S22.38,10.14,22.38,10.17Z"/><path class="cls-5" d="M21.88,10.45a.12.12,0,0,1,0,.08s0,0,0,0a.12.12,0,0,1,0-.08S21.88,10.42,21.88,10.45Z"/><path class="cls-5" d="M22.38,10.7a.1.1,0,0,1,0,.08s0,0,0,0a.08.08,0,0,1,0-.07S22.38,10.68,22.38,10.7Z"/><path class="cls-5" d="M21.88,11a.12.12,0,0,1,0,.08s0,0,0,0a.1.1,0,0,1,0-.08S21.88,11,21.88,11Z"/><path class="cls-5" d="M22.44,10.41a.12.12,0,0,1,0,.08s0,0,0,0a.12.12,0,0,1,0-.08S22.44,10.39,22.44,10.41Z"/><path class="cls-5" d="M21.8,10.78a.08.08,0,0,1,0,.07s0,0,0,0,0-.07,0-.08S21.8,10.75,21.8,10.78Z"/><path class="cls-5" d="M22.12,11a.12.12,0,0,1,0,.08s0,0,0,0a.1.1,0,0,1,0-.08S22.12,11,22.12,11Z"/><path class="cls-1" d="M20.21,10.92a2.15,2.15,0,0,1-.89,1.7c-.49.28-.89,0-.89-.68a2.15,2.15,0,0,1,.89-1.7C19.81,10,20.21,10.26,20.21,10.92Z"/><polygon class="cls-1" points="19.41 13.04 18.77 12.68 19.92 10.21 20.54 10.55 19.41 13.04"/><path class="cls-2" d="M20.88,11.29A2.12,2.12,0,0,1,20,13c-.49.28-.89,0-.89-.67a2.12,2.12,0,0,1,.89-1.7C20.48,10.33,20.88,10.63,20.88,11.29Z"/><path class="cls-3" d="M20.57,11.49a1.36,1.36,0,0,1-.58,1.1c-.32.19-.58,0-.58-.43A1.4,1.4,0,0,1,20,11.05C20.31,10.87,20.57,11.07,20.57,11.49Z"/><path class="cls-4" d="M20.4,11.59a1,1,0,0,1-.41.79c-.23.13-.41,0-.41-.32a1,1,0,0,1,.41-.79C20.22,11.14,20.4,11.28,20.4,11.59Z"/><path class="cls-5" d="M20.19,11.71a.47.47,0,0,1-.2.38c-.11.07-.2,0-.2-.15a.47.47,0,0,1,.2-.38C20.1,11.49,20.19,11.56,20.19,11.71Z"/><path class="cls-5" d="M20,11.39a.08.08,0,0,1,0,.07s0,0,0,0a.1.1,0,0,1,0-.07S20,11.36,20,11.39Z"/><path class="cls-5" d="M20.29,11.39a.08.08,0,0,1,0,.07s0,0,0,0a.1.1,0,0,1,0-.07S20.29,11.36,20.29,11.39Z"/><path class="cls-5" d="M19.79,11.68a.1.1,0,0,1,0,.07s0,0,0,0a.08.08,0,0,1,0-.07S19.79,11.65,19.79,11.68Z"/><path class="cls-5" d="M20.29,11.93a.08.08,0,0,1,0,.07s0,0,0,0a.08.08,0,0,1,0-.07S20.29,11.9,20.29,11.93Z"/><path class="cls-5" d="M19.79,12.22a.1.1,0,0,1,0,.07s0,0,0,0a.08.08,0,0,1,0-.07S19.79,12.19,19.79,12.22Z"/><path class="cls-5" d="M20.35,11.64a.08.08,0,0,1,0,.07s0,0,0,0a.08.08,0,0,1,0-.07S20.35,11.61,20.35,11.64Z"/><path class="cls-5" d="M19.71,12s0,.07,0,.08,0,0,0,0a.08.08,0,0,1,0-.07S19.71,12,19.71,12Z"/><path class="cls-5" d="M20,12.22a.1.1,0,0,1,0,.07s0,0,0,0a.08.08,0,0,1,0-.07S20,12.19,20,12.22Z"/><path class="cls-1" d="M12.28,15.46a2.12,2.12,0,0,1-.89,1.7c-.49.29-.89,0-.89-.67a2.14,2.14,0,0,1,.89-1.7C11.88,14.51,12.28,14.81,12.28,15.46Z"/><polygon class="cls-1" points="11.48 17.59 10.84 17.22 11.99 14.75 12.61 15.1 11.48 17.59"/><path class="cls-2" d="M13,15.84a2.15,2.15,0,0,1-.89,1.7c-.49.28-.89,0-.89-.68a2.15,2.15,0,0,1,.89-1.7C12.55,14.88,13,15.18,13,15.84Z"/><path class="cls-3" d="M12.64,16a1.38,1.38,0,0,1-.58,1.1c-.32.19-.58,0-.58-.44a1.39,1.39,0,0,1,.58-1.1C12.38,15.42,12.64,15.61,12.64,16Z"/><path class="cls-4" d="M12.48,16.13a1,1,0,0,1-.42.79c-.23.14-.41,0-.41-.31a1,1,0,0,1,.41-.79C12.29,15.69,12.48,15.83,12.48,16.13Z"/><path class="cls-5" d="M12.26,16.26a.5.5,0,0,1-.2.38c-.11.06-.2,0-.2-.15a.5.5,0,0,1,.2-.39C12.17,16,12.26,16.11,12.26,16.26Z"/><path class="cls-5" d="M12.1,15.94a.1.1,0,0,1,0,.07s0,0,0,0a.08.08,0,0,1,0-.07S12.1,15.91,12.1,15.94Z"/><path class="cls-5" d="M12.36,15.94a.1.1,0,0,1,0,.07s0,0,0,0a.08.08,0,0,1,0-.07S12.36,15.91,12.36,15.94Z"/><path class="cls-5" d="M11.86,16.22a.12.12,0,0,1,0,.08s0,0,0,0a.12.12,0,0,1,0-.08S11.86,16.19,11.86,16.22Z"/><path class="cls-5" d="M12.36,16.48a.1.1,0,0,1,0,.07s0,0,0,0a.08.08,0,0,1,0-.07S12.36,16.45,12.36,16.48Z"/><path class="cls-5" d="M11.86,16.76a.12.12,0,0,1,0,.08s0,0,0,0a.12.12,0,0,1,0-.08S11.86,16.73,11.86,16.76Z"/><path class="cls-5" d="M12.42,16.18a.1.1,0,0,1,0,.08s0,0,0,0a.08.08,0,0,1,0-.07S12.42,16.16,12.42,16.18Z"/><path class="cls-5" d="M11.78,16.55a.08.08,0,0,1,0,.07s0,0,0,0,0-.07,0-.08S11.78,16.52,11.78,16.55Z"/><path class="cls-5" d="M12.1,16.76a.12.12,0,0,1,0,.08s0,0,0,0a.12.12,0,0,1,0-.08S12.1,16.73,12.1,16.76Z"/><path class="cls-6" d="M8.82,17.9l-.69-.41-.46-.37a3.69,3.69,0,0,0,.4-.16S9,17.26,8.82,17.9Z"/><polygon class="cls-7" points="5.06 10.22 5.06 14.71 5.57 14.38 1.67 12.14 5.06 10.22"/><polygon class="cls-7" points="4.25 15.14 0.49 17.31 0.49 14.98 0.97 13.36 4.25 15.14"/><path class="cls-7" d="M1.13,12.81a1.11,1.11,0,0,1,.52-.66h0l3.9,2.24,1.2.69-.15,1.36L4.25,15.14,1,13.36Z"/><polygon class="cls-8" points="6.92 16.75 9.1 15.48 10.89 16.51 8.7 17.77 6.92 16.75"/><polygon class="cls-9" points="10.89 16.51 8.67 17.79 8.67 18.66 10.89 17.38 10.89 16.51"/><polygon class="cls-10" points="10.72 17.25 8.98 18.25 8.98 18.35 10.72 17.34 10.72 17.25"/><polygon class="cls-10" points="10.72 17.03 8.98 18.03 8.98 18.13 10.72 17.13 10.72 17.03"/><polygon class="cls-8" points="11.31 14.31 17.11 10.88 18.9 11.9 13.09 15.34 11.31 14.31"/><polygon class="cls-9" points="18.9 11.9 13.09 15.34 13.09 16.2 18.9 12.77 18.9 11.9"/><polygon class="cls-10" points="18.73 12.64 13.29 15.83 13.29 15.93 18.73 12.73 18.73 12.64"/><polygon class="cls-10" points="18.73 12.42 13.29 15.61 13.29 15.71 18.73 12.52 18.73 12.42"/><polygon class="cls-11" points="5.47 13.31 5.47 14.11 10.14 16.81 10.14 16.01 5.47 13.31"/><polygon class="cls-12" points="23.46 8.33 23.46 9.12 10.14 16.81 10.14 16.01 23.46 8.33"/><path class="cls-1" d="M8.09,17.83a2.1,2.1,0,0,1-.89,1.7c-.49.29-.89,0-.89-.67a2.12,2.12,0,0,1,.89-1.7C7.7,16.87,8.09,17.18,8.09,17.83Z"/><polygon class="cls-1" points="7.3 19.95 6.65 19.59 7.8 17.12 8.42 17.47 7.3 19.95"/><path class="cls-2" d="M8.76,18.2a2.16,2.16,0,0,1-.89,1.71c-.49.28-.89,0-.89-.68a2.14,2.14,0,0,1,.89-1.7C8.36,17.25,8.76,17.55,8.76,18.2Z"/><path class="cls-3" d="M8.45,18.41a1.38,1.38,0,0,1-.58,1.1c-.32.18-.57,0-.57-.44A1.37,1.37,0,0,1,7.87,18C8.19,17.79,8.45,18,8.45,18.41Z"/><ellipse class="cls-4" cx="7.87" cy="18.74" rx="0.64" ry="0.36" transform="translate(-12.45 18.65) rotate(-66.95)"/><path class="cls-5" d="M8.07,18.62a.5.5,0,0,1-.2.39c-.11.06-.2,0-.2-.16a.5.5,0,0,1,.2-.38C8,18.41,8.07,18.48,8.07,18.62Z"/><path class="cls-5" d="M7.91,18.3a.1.1,0,0,1,0,.08s0,0,0,0a.12.12,0,0,1,0-.08S7.91,18.28,7.91,18.3Z"/><path class="cls-5" d="M8.17,18.3a.1.1,0,0,1,0,.08s0,0,0,0a.12.12,0,0,1,0-.08S8.17,18.28,8.17,18.3Z"/><path class="cls-5" d="M7.67,18.59a.07.07,0,0,1,0,.07s0,0,0,0,0-.07,0-.08S7.67,18.56,7.67,18.59Z"/><path class="cls-5" d="M8.17,18.84a.12.12,0,0,1,0,.08s0,0,0,0a.12.12,0,0,1,0-.08S8.17,18.81,8.17,18.84Z"/><path class="cls-5" d="M7.67,19.13a.07.07,0,0,1,0,.07s0,0,0,0,0-.06,0-.07S7.67,19.1,7.67,19.13Z"/><path class="cls-5" d="M8.23,18.55a.09.09,0,0,1,0,.08s0,0,0,0a.11.11,0,0,1,0-.08S8.23,18.52,8.23,18.55Z"/><path class="cls-5" d="M7.6,18.92a.08.08,0,0,1,0,.07s0,0,0,0a.1.1,0,0,1,0-.07S7.6,18.89,7.6,18.92Z"/><path class="cls-5" d="M7.91,19.13a.08.08,0,0,1,0,.07s0,0,0,0a.1.1,0,0,1,0-.07S7.91,19.1,7.91,19.13Z"/><polygon class="cls-4" points="23.05 9.23 23.36 9.05 23.36 8.64 23.05 8.82 23.05 9.23"/><polygon class="cls-13" points="22.97 8.77 23.05 8.82 23.05 9.23 22.97 9.18 22.97 8.77"/><polygon class="cls-14" points="22.97 8.77 23.27 8.6 23.36 8.65 23.05 8.82 22.97 8.77"/><polygon class="cls-4" points="13.1 15 13.4 14.82 13.4 14.42 13.1 14.59 13.1 15"/><polygon class="cls-13" points="13.02 14.54 13.1 14.59 13.1 15 13.02 14.95 13.02 14.54"/><polygon class="cls-14" points="13.02 14.54 13.32 14.37 13.4 14.42 13.1 14.59 13.02 14.54"/><path class="cls-12" d="M6.57,14l2.64-1.39V12l-1.63.77A2.06,2.06,0,0,0,6.57,14Z"/><polygon class="cls-15" points="10.14 16.02 23.46 8.33 18.79 5.63 5.47 13.32 10.14 16.02"/><polygon class="cls-11" points="6.17 13.45 19.01 6.05 18.75 5.91 5.9 13.32 6.17 13.45"/><polygon class="cls-11" points="10.17 15.75 23.01 8.35 22.75 8.21 9.9 15.61 10.17 15.75"/><path class="cls-16" d="M1.3,12.46l4.8,2.71-.94,2.51L.49,15s.48-1.7.69-2.31A1.81,1.81,0,0,1,1.3,12.46Z"/><path class="cls-17" d="M9.7,12.9,6.33,14.85a1.13,1.13,0,0,0-.53.66l-.64,2.17V20l1.4-.81a2.9,2.9,0,0,1,1.18-2c.59-.33,1.07-.06,1.19.6l.77-.45Z"/><polygon class="cls-16" points="7.3 17.6 7.3 14.29 7.4 14.23 7.4 17.6 7.3 17.6"/><path class="cls-13" d="M7.74,17.36a2.65,2.65,0,0,0-1.07,1.78l-.11.06a2.9,2.9,0,0,1,1.18-2c.59-.33,1.07-.06,1.19.6l-.11.06C8.71,17.3,8.27,17.06,7.74,17.36Z"/><polygon class="cls-16" points="0.49 14.98 5.16 17.68 5.16 20.01 0.49 17.31 0.49 14.98"/><polygon class="cls-7" points="0.49 14.98 5.16 17.68 5.16 17.87 0.49 15.17 0.49 14.98"/><polygon class="cls-16" points="9.7 15.06 5.16 17.68 5.16 17.87 9.7 15.25 9.7 15.06"/><path class="cls-5" d="M4.39,18.05v.14L1.26,16.38v-.15L4.39,18Z"/><path class="cls-5" d="M4.39,18.71v0L1.26,16.94v-.15L4.39,18.6Z"/><path class="cls-5" d="M1.49,16.07l2.67,1.55a.54.54,0,0,1,.2.26L1.29,16.11A.15.15,0,0,1,1.49,16.07Z"/><polygon class="cls-5" points="4.39 18.46 1.26 16.66 1.26 16.52 4.39 18.32 4.39 18.46"/><path class="cls-5" d="M4.16,18.88,1.49,17.33a.49.49,0,0,1-.19-.23l3,1.76C4.3,18.91,4.24,18.92,4.16,18.88Z"/><path class="cls-3" d="M4.36,17.88a.76.76,0,0,1,0,.16L1.26,16.23a.21.21,0,0,1,0-.12Z"/><polygon class="cls-3" points="4.39 18.32 1.26 16.52 1.26 16.38 4.39 18.18 4.39 18.32"/><polygon class="cls-3" points="4.39 18.6 1.26 16.79 1.26 16.66 4.39 18.46 4.39 18.6"/><path class="cls-3" d="M4.34,18.86l-3-1.76a.75.75,0,0,1,0-.16l3.13,1.81A.22.22,0,0,1,4.34,18.86Z"/><path class="cls-18" d="M.48,15.49l.4.26a.54.54,0,0,1,.23.44v.65c0,.17-.1.24-.23.17l-.4-.25Z"/><path class="cls-18" d="M4.76,18l.4.23v1.26l-.4-.23a.58.58,0,0,1-.23-.44v-.65C4.53,18,4.64,17.89,4.76,18Z"/><path class="cls-4" d="M4.63,18.24a.5.5,0,0,0,.22.41c.12.07.21,0,.21-.16a.51.51,0,0,0-.21-.41C4.73,18,4.63,18.09,4.63,18.24Z"/><path class="cls-4" d="M4.73,18.9a.4.4,0,0,0,.16.32c.1.05.17,0,.17-.13a.37.37,0,0,0-.17-.31C4.8,18.72,4.73,18.78,4.73,18.9Z"/><path class="cls-4" d="M.57,15.88a.51.51,0,0,0,.21.41c.12.07.22,0,.22-.16a.51.51,0,0,0-.22-.41C.66,15.65.57,15.73.57,15.88Z"/><path class="cls-4" d="M.66,16.54a.41.41,0,0,0,.17.32c.09.05.17,0,.17-.13a.43.43,0,0,0-.17-.32C.74,16.36.66,16.42.66,16.54Z"/><path class="cls-19" d="M1.4,12.91.88,14.55l-.07,0L1.29,13a.18.18,0,0,1,.18-.13A.14.14,0,0,0,1.4,12.91Z"/><path class="cls-5" d="M4.73,17.23,1,15.09a.47.47,0,0,1-.21-.53v0L5.13,17l0,.07A.27.27,0,0,1,4.73,17.23Z"/><path class="cls-19" d="M2.68,13.85C3,14.06,4.62,15,5.58,15.5h0L5.13,17,1.3,14.8c.06-.18.11-.36.17-.53C1.7,13.55,2.18,13.55,2.68,13.85Z"/><path class="cls-20" d="M1.4,12.91a.14.14,0,0,1,.07-.08l.08,0L5.37,15a.43.43,0,0,1,.21.49c-1-.54-2.56-1.44-2.9-1.65-.5-.3-1-.3-1.21.42-.06.17-.11.35-.17.53l-.42-.25Z"/><path class="cls-12" d="M6.06,19.32v.46a.49.49,0,0,1-.24.37l-.07-.53Z"/><polygon class="cls-11" points="5.18 20.05 5.17 20.53 4.36 20.07 4.36 19.58 5.18 20.05"/><polygon class="cls-11" points="0.19 17.18 1 17.64 1 18.12 0.19 17.65 0.19 17.18"/><polygon class="cls-5" points="4.36 19.58 4.36 20.07 1 18.12 1 17.64 4.36 19.58"/><polygon class="cls-4" points="1.56 18.07 3.69 19.29 3.68 19.58 1.56 18.35 1.56 18.07"/><path class="cls-12" d="M5.17,20.06v.47l.59-.34A.34.34,0,0,0,5.92,20v-.34Z"/><path class="cls-15" d="M6.06,19.32l-.89.52L.49,17.14V17l-.3.17,5,2.88.61-.36A.51.51,0,0,0,6,19.48Z"/><path class="cls-4" d="M3.88,19.55a.3.3,0,0,0,.12.24c.07,0,.13,0,.13-.1A.31.31,0,0,0,4,19.45C3.93,19.41,3.88,19.45,3.88,19.55Z"/><path class="cls-4" d="M1.14,18a.28.28,0,0,0,.12.24c.07,0,.13,0,.13-.09a.31.31,0,0,0-.13-.24C1.19,17.83,1.14,17.87,1.14,18Z"/><polygon class="cls-16" points="6.34 14.84 9.7 12.9 5.02 10.2 1.67 12.14 6.34 14.84"/><path class="cls-7" d="M6.57,14a1.81,1.81,0,0,1,.71-.88A20.31,20.31,0,0,1,9.21,12L5.54,9.91S4.12,10.65,3.63,11a1.6,1.6,0,0,0-.73.89Z"/><path class="cls-21" d="M6.31,15.21l.6-.35a.1.1,0,0,1,.16,0l-.06,0-.6.35a.4.4,0,0,0-.17.33v1.07a.22.22,0,0,0,0,.09c-.06,0-.11-.05-.11-.15V15.54A.41.41,0,0,1,6.31,15.21Z"/><path class="cls-19" d="M6.24,15.6a.4.4,0,0,1,.17-.33l.6-.35.06,0a.24.24,0,0,1,0,.09v1.07a.4.4,0,0,1-.18.33l-.6.35-.06,0a.22.22,0,0,1,0-.09Z"/><polygon class="cls-4" points="6.16 19.07 6.46 18.89 6.46 18.49 6.16 18.66 6.16 19.07"/><polygon class="cls-13" points="6.08 18.62 6.16 18.66 6.16 19.07 6.08 19.02 6.08 18.62"/><polygon class="cls-14" points="6.08 18.62 6.38 18.44 6.46 18.49 6.16 18.66 6.08 18.62"/><polygon class="cls-4" points="9.1 17.32 9.4 17.15 9.4 16.74 9.1 16.92 9.1 17.32"/><polygon class="cls-13" points="9.01 16.87 9.1 16.92 9.1 17.32 9.01 17.27 9.01 16.87"/><polygon class="cls-14" points="9.01 16.87 9.32 16.7 9.4 16.74 9.1 16.92 9.01 16.87"/></svg>