<svg id="Layer_1" data-name="Layer 1" xmlns="http://www.w3.org/2000/svg" viewBox="0 0 24 24"><defs><style>.cls-1{fill:#229071;}</style></defs><path id="_5" data-name="5" class="cls-1" d="M24,9V9a.4.4,0,0,0,0-.15h0V5h0a.4.4,0,0,0,0-.15v0a.61.61,0,0,0-.07-.14l0,0a.52.52,0,0,0-.11-.1h0l-.15-.07h0l-11-3h-.28L.56,4.48A.56.56,0,0,0,0,5V8.82s0,0,0,.06a.58.58,0,0,0,.17.39h0a.48.48,0,0,0,.11.09l.08,0s0,0,0,0l.39.12-.07,10h0a.77.77,0,0,0,0,.15v0a.83.83,0,0,0,.07.13h0a.47.47,0,0,0,.1.1l0,0,.13.07h0l11.18,3.75h0a.51.51,0,0,0,.17,0h0a.58.58,0,0,0,.19,0h0L22.57,20h0a.33.33,0,0,0,.13-.07l0,0a.52.52,0,0,0,.1-.11h0l.06-.12v0a.59.59,0,0,0,0-.14h0l.2-10,.49-.16h0l.14-.07,0,0,.1-.1h0A.75.75,0,0,0,24,9ZM12.63,22.65V12.44h0v-.25L22,9.1h0l-.21,10Zm-.18-20,9.67,2.63L12.44,8.16,2.05,5.24Zm-10.84,6a.57.57,0,0,0-.22-.07l-.28-.08v-3l.22-.06L12.26,8.49v3.33Zm11,3.19V8.49L22.79,5.43l.11,0v3l-.48.15h0l-.1,0ZM1.89,9.29h0a1,1,0,0,0,0-.16v0l10.35,3.12V22.67L1.82,19.16Z"/></svg>