<svg id="Layer_1" data-name="Layer 1" xmlns="http://www.w3.org/2000/svg" viewBox="0 0 24 24"><defs><style>.cls-1{fill:#fff;}.cls-2{fill:#a3c4e3;}.cls-3{fill:#f6f7f7;}.cls-4{fill:#d0e0f2;}.cls-5{fill:#8fb6d7;}.cls-6{fill:#bcd7f0;}.cls-7{fill:#d3dff2;}.cls-8{fill:#1d315f;}.cls-9{fill:#223e7a;}.cls-10{fill:#3cae73;}.cls-11{fill:#74a4c5;}</style></defs><path class="cls-1" d="M1.46,11.13,1.71,11h0a.18.18,0,0,1,.17,0l.28.16a.64.64,0,0,1,.27.51v1.11a.23.23,0,0,1-.1.22h0l-.22.14L2,12.9l-.16-.09a.65.65,0,0,1-.27-.51v-.71Z"/><path class="cls-2" d="M1.65,13l.27.17c.15.08.27,0,.27-.21v-1.1a.66.66,0,0,0-.27-.52l-.27-.16c-.15-.09-.27,0-.27.2v1.11A.62.62,0,0,0,1.65,13Z"/><path class="cls-3" d="M1.45,18.76c-.8.46-1.12-.15-1-1.18a31.56,31.56,0,0,1,2.32-6.07,13.53,13.53,0,0,1,2-3.35,20.51,20.51,0,0,1,4.31-2.9L17.31.51V9.6Z"/><polygon class="cls-3" points="23.88 4.26 17.31 0.52 0.75 18.85 7.31 22.61 23.88 4.26"/><path class="cls-4" d="M8,22.51c-.8.46-1.12-.15-1-1.18a31.79,31.79,0,0,1,2.33-6.07,13.53,13.53,0,0,1,2-3.35A20.51,20.51,0,0,1,15.66,9l8.22-4.75v9.09l-1.69,1-.38-.26-2.7,1.15-.05.62.09.28-6,3.39-.34-.17-2.7,1.93Z"/><path class="cls-2" d="M4,11.16,3.51,12c-.17.32-.56.91-.74,1.22a13.65,13.65,0,0,1,2.44,1.24c1.25.75,2.52,1.49,2.93,1.77.2-.44.56-1.25.82-1.69s.37-.64.51-.9a9.1,9.1,0,0,1-2.57-.89C5.85,12.2,4.71,11.57,4,11.16Z"/><path class="cls-5" d="M2.77,13.21c.18-.31.57-.9.74-1.22L4,11.16,3.6,11c-.06.1-.11.21-.17.32-.34.68-1.09,2.22-1.09,2.22A19,19,0,0,0,4.55,15a27.93,27.93,0,0,0,3.34,1.69s.17-.29.25-.47c-.41-.28-1.68-1-2.93-1.77A13.65,13.65,0,0,0,2.77,13.21Z"/><path class="cls-6" d="M6.47,11.46c-1-.62-1.63-1.07-2-1.33a8.78,8.78,0,0,1-.49,1c.74.41,1.88,1,2.93,1.58a9.1,9.1,0,0,0,2.57.89c.15-.27.25-.47.25-.47A21.51,21.51,0,0,1,6.47,11.46Z"/><path class="cls-7" d="M6.47,11.46c-1-.62-1.63-1.07-2-1.33a8.78,8.78,0,0,1-.49,1c.74.41,1.88,1,2.93,1.58a9.1,9.1,0,0,0,2.57.89c.15-.27.25-.47.25-.47A21.51,21.51,0,0,1,6.47,11.46Z"/><path class="cls-6" d="M4.46,10.13l-.32-.22s-.26.48-.54,1l.37.21A8.78,8.78,0,0,0,4.46,10.13Z"/><path class="cls-2" d="M4.46,10.13l-.32-.22s-.26.48-.54,1l.37.21A8.78,8.78,0,0,0,4.46,10.13Z"/><path class="cls-2" d="M.47,17.47a3.81,3.81,0,0,0,1.12,1,34.31,34.31,0,0,0,4.06,2.27,4.13,4.13,0,0,0,2.5.44,5.77,5.77,0,0,0,1.76-.64c.25-.16.12.69-.14.91a9.84,9.84,0,0,1-1.75,1c-.67.29-1.28.31-2.82-.48s-4.38-2.4-4.68-3A2,2,0,0,1,.47,17.47Z"/><path class="cls-8" d="M9.91,20.73a2.93,2.93,0,0,1,1.24-2.36,1.15,1.15,0,0,1,.54-.16,1.55,1.55,0,0,1,.8.23,1.14,1.14,0,0,1,.44.79l-1.39,2.86a1,1,0,0,1-.91,0,1.34,1.34,0,0,1-.54-.56,2.29,2.29,0,0,1-.11-.23A2.06,2.06,0,0,1,9.91,20.73Z"/><path class="cls-9" d="M13,19.63A3,3,0,0,1,11.73,22c-.69.39-1.24,0-1.24-.94a2.94,2.94,0,0,1,1.24-2.37C12.41,18.29,13,18.71,13,19.63Z"/><path class="cls-1" d="M12.73,19.78a2.34,2.34,0,0,1-1,1.87c-.54.31-1,0-1-.74a2.38,2.38,0,0,1,1-1.88C12.29,18.72,12.73,19.05,12.73,19.78Z"/><path class="cls-1" d="M12.66,19.85a2.09,2.09,0,0,1-.88,1.68c-.48.28-.88,0-.88-.66a2.15,2.15,0,0,1,.88-1.69C12.27,18.9,12.66,19.2,12.66,19.85Zm-1.1-.32a.6.6,0,0,0,.08.16s0,0,0,0a1.17,1.17,0,0,1,.2-.12l.11,0s.06,0,.08,0l.11-.19c0-.06,0-.1,0-.13a.15.15,0,0,0-.09,0,.45.45,0,0,0-.33.09.84.84,0,0,0-.19.14A.17.17,0,0,0,11.56,19.53Zm.22.2a1.12,1.12,0,0,0-.47.9c0,.35.21.5.47.35a1.12,1.12,0,0,0,.47-.89C12.25,19.74,12,19.58,11.78,19.73Zm-.77.79c0,.06,0,.07.07,0a.46.46,0,0,0,.15-.09s0,0,0-.11a1,1,0,0,1,.07-.18,1.52,1.52,0,0,1,.14-.26.13.13,0,0,0,0-.08.78.78,0,0,0-.05-.18s0-.05-.08,0a1.08,1.08,0,0,0-.16.23,1.85,1.85,0,0,0-.18.48A1.37,1.37,0,0,0,11,20.52Zm.3.87a1,1,0,0,0,.09-.24.06.06,0,0,0,0-.07.48.48,0,0,1-.11-.15s0-.09,0-.14,0-.08,0-.08l-.14,0c-.05,0-.07,0-.08.11A.42.42,0,0,0,11,21a.56.56,0,0,0,.11.35c0,.06.1.11.13.11S11.29,21.44,11.31,21.39Zm.74-.3A.44.44,0,0,0,12,21s0,0-.07,0l-.13.09a.5.5,0,0,1-.19,0s0,0-.05.05a1.63,1.63,0,0,0-.11.23c0,.05,0,.09,0,.12a.39.39,0,0,0,.18,0,.67.67,0,0,0,.33-.19l.11-.13A.12.12,0,0,0,12.05,21.09Zm.54-.94s0-.06-.06,0a.91.91,0,0,0-.17.09.16.16,0,0,0,0,.08,1.36,1.36,0,0,1-.08.28,1,1,0,0,1-.09.17c0,.06-.05.08,0,.11a.86.86,0,0,0,0,.17c0,.05,0,.06.08,0l.11-.13a1.57,1.57,0,0,0,.21-.46A2.07,2.07,0,0,0,12.59,20.15Zm0-.27a.73.73,0,0,0,0-.25.54.54,0,0,0-.14-.32.14.14,0,0,0-.09,0s-.06,0-.09.08l-.07.22s0,0,0,.07,0,.08.06.11a.7.7,0,0,1,0,.23s0,.05,0,.05l.16-.05A.12.12,0,0,0,12.6,19.88Z"/><path class="cls-4" d="M11.83,19.91a.92.92,0,0,0-.38.73c0,.28.17.41.38.29a.92.92,0,0,0,.39-.73C12.22,19.92,12,19.79,11.83,19.91Z"/><path class="cls-9" d="M11.08,20.56a.46.46,0,0,0,.15-.09s0,0,0-.11a1,1,0,0,1,.07-.18,1.52,1.52,0,0,1,.14-.26.13.13,0,0,0,0-.08.78.78,0,0,0-.05-.18s0-.05-.08,0a1.08,1.08,0,0,0-.16.23,1.85,1.85,0,0,0-.18.48,1.37,1.37,0,0,0,0,.16C11,20.58,11,20.59,11.08,20.56Z"/><path class="cls-9" d="M11.64,19.69s0,0,0,0a1.17,1.17,0,0,1,.2-.12l.11,0s.06,0,.08,0l.11-.19c0-.06,0-.1,0-.13a.15.15,0,0,0-.09,0,.45.45,0,0,0-.33.09.84.84,0,0,0-.19.14.17.17,0,0,0,0,.13A.6.6,0,0,0,11.64,19.69Z"/><path class="cls-9" d="M12.59,19.63a.54.54,0,0,0-.14-.32.14.14,0,0,0-.09,0s-.06,0-.09.08l-.07.22s0,0,0,.07,0,.08.06.11a.7.7,0,0,1,0,.23s0,.05,0,.05l.16-.05a.12.12,0,0,0,.07-.1A.73.73,0,0,0,12.59,19.63Z"/><path class="cls-9" d="M12.53,20.1a.91.91,0,0,0-.17.09.16.16,0,0,0,0,.08,1.36,1.36,0,0,1-.08.28,1,1,0,0,1-.09.17c0,.06-.05.08,0,.11a.86.86,0,0,0,0,.17c0,.05,0,.06.08,0l.11-.13a1.57,1.57,0,0,0,.21-.46,2.07,2.07,0,0,0,.06-.28S12.56,20.09,12.53,20.1Z"/><path class="cls-9" d="M12,21s0,0-.07,0l-.13.09a.5.5,0,0,1-.19,0s0,0-.05.05a1.63,1.63,0,0,0-.11.23c0,.05,0,.09,0,.12a.39.39,0,0,0,.18,0,.67.67,0,0,0,.33-.19l.11-.13a.12.12,0,0,0,0-.13A.44.44,0,0,0,12,21Z"/><path class="cls-9" d="M11.39,21.08a.48.48,0,0,1-.11-.15s0-.09,0-.14,0-.08,0-.08l-.14,0c-.05,0-.07,0-.08.11A.42.42,0,0,0,11,21a.56.56,0,0,0,.11.35c0,.06.1.11.13.11s.06,0,.08-.08a1,1,0,0,0,.09-.24A.06.06,0,0,0,11.39,21.08Z"/><path class="cls-8" d="M19.06,15.41a2.93,2.93,0,0,1,1.24-2.36,1.12,1.12,0,0,1,.54-.16,1.52,1.52,0,0,1,.79.23,1.17,1.17,0,0,1,.45.79l-1.4,2.86a1.06,1.06,0,0,1-.91,0,1.48,1.48,0,0,1-.54-.57l-.1-.23A1.7,1.7,0,0,1,19.06,15.41Z"/><path class="cls-9" d="M22.12,14.31a3,3,0,0,1-1.24,2.37c-.69.39-1.24,0-1.24-.94a3,3,0,0,1,1.24-2.37C21.56,13,22.12,13.39,22.12,14.31Z"/><path class="cls-1" d="M21.88,14.46a2.34,2.34,0,0,1-1,1.87c-.55.31-1,0-1-.74a2.35,2.35,0,0,1,1-1.88C21.44,13.4,21.88,13.73,21.88,14.46Z"/><path class="cls-1" d="M21.81,14.53a2.09,2.09,0,0,1-.88,1.68c-.49.28-.88,0-.88-.66a2.12,2.12,0,0,1,.88-1.69C21.42,13.58,21.81,13.88,21.81,14.53Zm-1.1-.32a.59.59,0,0,0,.07.16s0,0,.06,0a1,1,0,0,1,.19-.12l.12,0s.05,0,.07,0l.12-.19c0-.06,0-.1,0-.13a.11.11,0,0,0-.09,0,.44.44,0,0,0-.32.09.84.84,0,0,0-.19.14A.14.14,0,0,0,20.71,14.21Zm.22.2a1.12,1.12,0,0,0-.47.9c0,.35.21.5.47.35a1.1,1.1,0,0,0,.47-.89C21.4,14.42,21.19,14.26,20.93,14.41Zm-.77.79c0,.06,0,.07.07,0l.15-.09s0,0,0-.11l.06-.18a1.5,1.5,0,0,1,.15-.26.13.13,0,0,0,0-.08.48.48,0,0,0-.06-.18s0-.05-.07,0a1.08,1.08,0,0,0-.16.23,1.65,1.65,0,0,0-.18.48A.53.53,0,0,0,20.16,15.2Zm.3.87a1.7,1.7,0,0,0,.09-.24.06.06,0,0,0,0-.07.31.31,0,0,1-.11-.15.47.47,0,0,1,0-.14c0-.05,0-.08,0-.08l-.15,0s-.06,0-.08.11a.81.81,0,0,0,0,.16.54.54,0,0,0,.12.35.33.33,0,0,0,.12.12S20.44,16.12,20.46,16.07Zm.74-.3-.09-.11s0,0-.07,0l-.13.09a.54.54,0,0,1-.19,0s0,0-.06.05a2.29,2.29,0,0,0-.1.23.1.1,0,0,0,0,.12.34.34,0,0,0,.17,0,.68.68,0,0,0,.34-.19.57.57,0,0,0,.1-.13A.11.11,0,0,0,21.2,15.77Zm.54-.94c0-.05,0-.06-.07-.05a1.29,1.29,0,0,0-.16.09.16.16,0,0,0-.05.08,2.55,2.55,0,0,1-.08.28s-.06.11-.09.17-.05.08-.05.11,0,.12,0,.17,0,.06.08,0a.73.73,0,0,0,.1-.13,1.7,1.7,0,0,0,.22-.46A2.07,2.07,0,0,0,21.74,14.83Zm0-.27a.73.73,0,0,0,0-.25A.64.64,0,0,0,21.6,14a.14.14,0,0,0-.1,0s-.06,0-.08.08a1.42,1.42,0,0,0-.07.22s0,0,0,.07.05.08.06.11,0,.16,0,.23,0,.05,0,.05l.17-.05A.12.12,0,0,0,21.75,14.56Z"/><path class="cls-4" d="M21,14.59a.92.92,0,0,0-.38.73c0,.28.17.41.38.29a.92.92,0,0,0,.38-.73C21.36,14.6,21.19,14.47,21,14.59Z"/><path class="cls-9" d="M20.23,15.24l.15-.09s0,0,0-.11l.06-.18a1.5,1.5,0,0,1,.15-.26.13.13,0,0,0,0-.08.48.48,0,0,0-.06-.18s0-.05-.07,0a1.08,1.08,0,0,0-.16.23,1.65,1.65,0,0,0-.18.48.53.53,0,0,0,0,.16C20.17,15.26,20.19,15.27,20.23,15.24Z"/><path class="cls-9" d="M20.78,14.37s0,0,.06,0a1,1,0,0,1,.19-.12l.12,0s.05,0,.07,0l.12-.19c0-.06,0-.1,0-.13a.11.11,0,0,0-.09,0,.44.44,0,0,0-.32.09.84.84,0,0,0-.19.14.14.14,0,0,0,0,.13A.59.59,0,0,0,20.78,14.37Z"/><path class="cls-9" d="M21.74,14.31A.64.64,0,0,0,21.6,14a.14.14,0,0,0-.1,0s-.06,0-.08.08a1.42,1.42,0,0,0-.07.22s0,0,0,.07.05.08.06.11,0,.16,0,.23,0,.05,0,.05l.17-.05a.12.12,0,0,0,.07-.1A.73.73,0,0,0,21.74,14.31Z"/><path class="cls-9" d="M21.67,14.78a1.29,1.29,0,0,0-.16.09.16.16,0,0,0-.05.08,2.55,2.55,0,0,1-.08.28s-.06.11-.09.17-.05.08-.05.11,0,.12,0,.17,0,.06.08,0a.73.73,0,0,0,.1-.13,1.7,1.7,0,0,0,.22-.46,2.07,2.07,0,0,0,.06-.28C21.73,14.78,21.71,14.77,21.67,14.78Z"/><path class="cls-9" d="M21.11,15.66s0,0-.07,0l-.13.09a.54.54,0,0,1-.19,0s0,0-.06.05a2.29,2.29,0,0,0-.1.23.1.1,0,0,0,0,.12.34.34,0,0,0,.17,0,.68.68,0,0,0,.34-.19.57.57,0,0,0,.1-.13.11.11,0,0,0,0-.13Z"/><path class="cls-9" d="M20.54,15.76a.31.31,0,0,1-.11-.15.47.47,0,0,1,0-.14c0-.05,0-.08,0-.08l-.15,0s-.06,0-.08.11a.81.81,0,0,0,0,.16.54.54,0,0,0,.12.35.33.33,0,0,0,.12.12s.07,0,.09-.09a1.7,1.7,0,0,0,.09-.24A.06.06,0,0,0,20.54,15.76Z"/><path class="cls-2" d="M11.56,18c.91-.53,1.78-.14,1.78,1.07l3.14-1.76,2.39-1.35v-.1a3.71,3.71,0,0,1,1.78-3.1c1-.55,1.79,0,1.79,1.36v.13c-.1.08-.16.1-.24.16h0s0-.07,0-.1c0-1.12-.69-1.64-1.53-1.15A3.64,3.64,0,0,0,19.15,16v.13l-.15.08-.14.08-5.71,3.23v-.09c0-1.13-.68-1.64-1.52-1.16a3.66,3.66,0,0,0-1.52,2.92v.09a2.57,2.57,0,0,1-.34.19v-.11A3.72,3.72,0,0,1,11.56,18Z"/><path class="cls-9" d="M4.12,9.64l-.28.54a13.13,13.13,0,0,0,2.23,1.66,29,29,0,0,0,3.64,1.58l.2-.38s-1.4-.77-3.09-1.8C5.49,10.43,4.12,9.64,4.12,9.64Z"/><path class="cls-9" d="M4.12,10.09s-.26.49-.6,1.07-1.18,2.33-1.18,2.33l-.09-.12s1.31-2.66,1.59-3.19A.34.34,0,0,1,4.12,10.09Z"/><polygon class="cls-9" points="9.56 13.28 7.89 16.69 8.04 16.73 9.71 13.43 9.56 13.28"/><path class="cls-2" d="M6.86,18.27S5.13,17.4,3.8,16.63a18.89,18.89,0,0,1-2-1.24s-.67,1.55-.35,2.23c.4.85,2.49,1.87,3.15,2.06C5.75,20,5.94,19.82,6.86,18.27Z"/><path class="cls-10" d="M6.08,20.1A4.55,4.55,0,0,1,7,18.85a.64.64,0,0,1,.83,0c-.12.26-.31.8-.47,1.27-.22.65-.19,1.06-.73.85S5.93,20.48,6.08,20.1Z"/><path class="cls-10" d="M1.27,15s.34.26.1,1.06-.29,1.41-.46,1.46-.4-.21-.4-.21A15.22,15.22,0,0,1,1.27,15Z"/><path class="cls-9" d="M1.41,18.59a28,28,0,0,0,2.41,1.46l1.25.62a.59.59,0,0,1-.59.43,3.93,3.93,0,0,1-1.82-.68,3.39,3.39,0,0,1-1.14-.89A1.29,1.29,0,0,1,1.41,18.59Z"/><path class="cls-9" d="M10.9,13.22A8.69,8.69,0,0,0,10,14.88c-.25.53-.52,1.14-.71,1.54a.16.16,0,0,0,.23.21l2.64-1.54a.27.27,0,0,0,.14-.24l-.07-2.47c0-.12-.1-.14-.2-.08A5.43,5.43,0,0,0,10.9,13.22Z"/><path class="cls-2" d="M12,12.92c0-.12-.08-.14-.17-.08a3,3,0,0,0-.79.65,15,15,0,0,0-.86,1.78c-.23.59-.21.72-.09.77s.45-.19,1-.48.65-.4.76-.47S12,15,12,14.55,12,13.27,12,12.92Z"/><path class="cls-2" d="M23.88,12.2s.15,0,.16.46,0,.58-.16.69-1.55.93-1.55.93v-.57l1-.57a1.27,1.27,0,0,0,.39-.31A1,1,0,0,0,23.88,12.2Z"/><path class="cls-2" d="M10.33,17.08,23.6,9.41a.16.16,0,0,0,.07-.14h0s0-.07-.07,0L10.33,16.89a.1.1,0,0,0-.07.1h0C10.26,17,10.29,17.1,10.33,17.08Z"/><path class="cls-8" d="M10.18,17.39a2.59,2.59,0,0,1-.84.06A.25.25,0,0,1,9.39,17,2.36,2.36,0,0,1,10,17Z"/><path class="cls-1" d="M9.94,16.08l.25-.17h0a.16.16,0,0,1,.16,0l.28.16a.66.66,0,0,1,.27.52v1.1a.23.23,0,0,1-.1.22h0l-.21.14-.08-.22-.16-.1a.65.65,0,0,1-.27-.51v-.71Z"/><path class="cls-2" d="M10.12,17.91l.28.16c.15.08.27,0,.27-.21v-1.1a.66.66,0,0,0-.27-.52l-.28-.16c-.15-.08-.27,0-.27.21v1.1A.66.66,0,0,0,10.12,17.91Z"/><path class="cls-11" d="M6.7,18.54s-1.61-.68-3-1.46a9.11,9.11,0,0,1-2-1.36l-.11.33a6.31,6.31,0,0,0,2,1.42,22.4,22.4,0,0,0,3,1.35Z"/><path class="cls-11" d="M6.33,19.12a25.66,25.66,0,0,1-3-1.37,6.63,6.63,0,0,1-1.86-1.33l-.08.38a5.82,5.82,0,0,0,1.86,1.29A21.79,21.79,0,0,0,6.12,19.4Z"/><path class="cls-11" d="M5.77,19.71A16.65,16.65,0,0,1,2.9,18.38a5.07,5.07,0,0,1-1.51-1.11s-.13.64,1.38,1.52S5.18,20,5.77,19.71Z"/><ellipse class="cls-1" cx="3.42" cy="18.05" rx="0.45" ry="0.49"/><path class="cls-2" d="M11.62,10,22,4.06a.33.33,0,0,1,.29,0,.12.12,0,0,1,.07.07.33.33,0,0,0-.29,0l-10.34,6s-.06.07,0,.1h0C11.55,10.15,11.54,10.07,11.62,10Z"/><path class="cls-4" d="M11.69,10.1,22,4.13a.33.33,0,0,1,.29,0,.09.09,0,0,1,0,.1l-10.35,6a.31.31,0,0,1-.28,0S11.64,10.13,11.69,10.1Z"/><path class="cls-2" d="M10.69,9.47,21,3.5a.35.35,0,0,1,.3,0,.13.13,0,0,1,.06.07.33.33,0,0,0-.29,0l-10.34,6s-.06.07,0,.1h0C10.63,9.59,10.62,9.51,10.69,9.47Z"/><path class="cls-4" d="M10.76,9.54l10.34-6a.33.33,0,0,1,.29,0,.09.09,0,0,1,0,.1L11,9.65a.33.33,0,0,1-.29,0S10.71,9.57,10.76,9.54Z"/><path class="cls-2" d="M9.73,8.94,20.07,3a.33.33,0,0,1,.29,0,.15.15,0,0,1,.07.07.33.33,0,0,0-.29,0L9.8,9a.08.08,0,0,0,0,.11h0C9.66,9.06,9.65,9,9.73,8.94Z"/><path class="cls-4" d="M9.8,9,20.14,3a.33.33,0,0,1,.29,0,.08.08,0,0,1,0,.1L10,9.12a.31.31,0,0,1-.28,0A.08.08,0,0,1,9.8,9Z"/><path class="cls-2" d="M8.8,8.38l10.34-6a.35.35,0,0,1,.3,0,.19.19,0,0,1,.06.07.33.33,0,0,0-.29,0l-10.34,6a.08.08,0,0,0,0,.11h0C8.74,8.5,8.73,8.43,8.8,8.38Z"/><path class="cls-4" d="M8.87,8.45l10.34-6a.33.33,0,0,1,.29,0,.08.08,0,0,1,0,.1l-10.35,6a.31.31,0,0,1-.28,0A.08.08,0,0,1,8.87,8.45Z"/><path class="cls-2" d="M7.86,7.82l10.34-6a.3.3,0,0,1,.29,0,.12.12,0,0,1,.07.07.3.3,0,0,0-.29,0l-10.34,6s-.06.06,0,.1h0C7.79,7.94,7.78,7.86,7.86,7.82Z"/><path class="cls-4" d="M7.93,7.89l10.34-6a.3.3,0,0,1,.29,0,.09.09,0,0,1,0,.1L8.17,8a.31.31,0,0,1-.28,0S7.88,7.92,7.93,7.89Z"/><path class="cls-2" d="M6.93,7.26l10.34-6a.32.32,0,0,1,.3,0,.13.13,0,0,1,.06.07.3.3,0,0,0-.29,0L7,7.33a.07.07,0,0,0,0,.1H7C6.87,7.38,6.86,7.3,6.93,7.26Z"/><path class="cls-4" d="M7,7.33l10.34-6a.3.3,0,0,1,.29,0,.09.09,0,0,1,0,.1l-10.34,6a.33.33,0,0,1-.29,0A.07.07,0,0,1,7,7.33Z"/><path class="cls-2" d="M12.55,12,23.6,5.66a.17.17,0,0,0,.07-.14h0s0-.07-.07,0l-11,6.38a.2.2,0,0,0-.08.14h0A.05.05,0,0,0,12.55,12Z"/><polygon class="cls-10" points="12.67 13.35 16.48 11.15 16.48 12.32 12.67 14.52 12.67 13.35"/><polygon class="cls-10" points="12.67 12.79 20.05 8.56 20.05 8.85 12.67 13.09 12.67 12.79"/><path class="cls-9" d="M10.86,15.78V13.67s-.15.09-.15.13v2S10.86,15.82,10.86,15.78Z"/><path class="cls-2" d="M19.77,12.81v.31a2.33,2.33,0,0,0-.6.73,5,5,0,0,0-.47,1.32l-5.21,3a.93.93,0,0,0-1-.77V17Z"/></svg>