<svg id="Layer_1" data-name="Layer 1" xmlns="http://www.w3.org/2000/svg" viewBox="0 0 24 24"><defs><style>.cls-1{fill:#fcb913;}.cls-2{fill:#fff;}</style></defs><circle class="cls-1" cx="11.98" cy="12.02" r="11.98"/><path class="cls-2" d="M12.56,8.31h-1V6.38h1Zm0,7.71h-1V18h1ZM8.23,11.68H6.3v1H8.23Zm9.64,0H15.94v1h1.93Zm-.55,3-1.66-1-.49.83,1.67,1ZM15.4,7.41l-.83-.49-1,1.67.84.48Zm1.93,2.26-.49-.83-1.66,1,.48.83Zm-1.91,7.25-1-1.67-.83.49,1,1.66ZM9,14.52l-.48-.83-1.67,1,.48.84Zm1.57-5.93-1-1.67-.83.48,1,1.67ZM9,9.81l-1.67-1-.48.83,1.66,1Zm1.56,5.93-.83-.49-1,1.67.83.48Z"/></svg>