<svg id="Layer_1" data-name="Layer 1" xmlns="http://www.w3.org/2000/svg" viewBox="0 0 24 24"><defs><style>.cls-1{fill:#4d4e4e;}.cls-2{fill:#d1d1d1;}.cls-3{fill:#3a3a3a;}.cls-4{fill:#707171;}.cls-5{fill:#ececec;}.cls-6{fill:#138453;}.cls-7{fill:#3cae73;}.cls-8{fill:#70c391;}.cls-9{fill:#98a8d6;}.cls-10{fill:#7c77ac;}.cls-11{fill:#8a99cd;}.cls-12{fill:#fff;}.cls-13{fill:#fbb976;}.cls-14{fill:#30302f;}.cls-15{fill:#4a4a4a;}.cls-16{fill:#959595;}.cls-17{fill:#383838;}</style></defs><polygon class="cls-1" points="11.97 19.08 23.28 12.54 23.28 3.92 11.97 10.46 11.97 19.08"/><polygon class="cls-2" points="12.25 10.67 12.25 18.57 22.98 12.38 22.98 4.47 12.25 10.67"/><polygon class="cls-3" points="6.63 7.37 6.63 11.04 11.97 14.07 11.97 10.46 6.63 7.37"/><polygon class="cls-2" points="6.88 7.89 6.88 10.91 11.65 13.46 11.65 10.65 6.88 7.89"/><polygon class="cls-4" points="6.63 7.37 17.95 0.83 23.28 3.92 11.97 10.46 6.63 7.37"/><polygon class="cls-5" points="7.22 7.32 11.97 10.06 22.69 3.87 17.93 1.12 7.22 7.32"/><polygon class="cls-6" points="22.98 9.57 22.98 8.76 18.97 11.08 19.46 9.47 12.25 13.64 12.25 14.49 18.42 10.92 18.02 12.44 22.98 9.57"/><polygon class="cls-7" points="8.74 15.37 11.97 13.54 6.64 10.46 3.44 12.31 8.74 15.37"/><polygon class="cls-6" points="11.97 13.54 11.97 19.08 6.41 22.28 6.41 20.13 8.74 15.37 11.97 13.54"/><polygon class="cls-7" points="1.12 17.14 1.12 19.21 6.41 22.26 6.41 20.2 1.12 17.14"/><polygon class="cls-8" points="8.74 15.37 6.41 20.2 1.12 17.14 3.44 12.31 8.74 15.37"/><polygon class="cls-9" points="3.62 13.07 1.75 17 6.17 19.56 8.04 15.63 3.62 13.07"/><polygon class="cls-10" points="9.37 15.84 11.52 14.61 11.52 14.28 9.1 15.68 8.27 17.52 8.27 19.45 8.54 19.29 8.54 17.68 9.37 15.84"/><polygon class="cls-11" points="10.39 17.41 11.52 16.75 11.52 14.61 9.37 15.84 8.54 17.68 8.54 19.29 10.09 18.4 10.39 17.41"/><polygon class="cls-3" points="0.66 19.02 6.24 22.22 6.23 22.88 0.66 19.66 0.66 19.02"/><polygon class="cls-1" points="6.23 22.23 6.23 22.88 7.25 22.29 7.25 21.64 6.23 22.23"/><polygon class="cls-4" points="7 21.49 6.23 21.94 0.92 18.87 0.66 19.02 6.23 22.23 7.25 21.64 7 21.49"/><polygon class="cls-3" points="2.46 19.3 2.46 19.54 5 21.01 5 20.77 2.46 19.3"/><polygon class="cls-3" points="2.46 18.84 2.46 19.09 5 20.56 5 20.32 2.46 18.84"/><polygon class="cls-3" points="2.46 18.39 2.46 18.64 5 20.11 5 19.86 2.46 18.39"/><polygon class="cls-12" points="2.21 18.4 1.12 17.77 1.12 18.59 2.21 19.21 2.21 18.4"/><polygon class="cls-12" points="5.23 20.14 5.23 20.96 6.41 21.65 6.42 20.83 5.23 20.14"/><polygon class="cls-10" points="1.75 17 2.35 15.74 6.77 18.3 6.17 19.56 1.75 17"/><polygon class="cls-7" points="9.02 19.65 9.11 19.39 7.25 20.46 7.25 19.26 7.11 19.54 7.11 20.75 9.02 19.65"/><polygon class="cls-7" points="6.96 19.83 6.77 20.2 6.77 21.3 8.87 20.08 8.96 19.81 6.96 20.97 6.96 19.83"/><path class="cls-13" d="M1.16,18.23a.53.53,0,0,0,.22.42c.13.07.23,0,.23-.17a.52.52,0,0,0-.23-.42C1.26,18,1.16,18.07,1.16,18.23Z"/><path class="cls-13" d="M5.88,20.91a.53.53,0,0,0,.22.42c.12.07.22,0,.22-.17a.53.53,0,0,0-.22-.42C6,20.67,5.88,20.75,5.88,20.91Z"/><path class="cls-13" d="M5.35,20.59a.53.53,0,0,0,.22.42c.12.07.22,0,.22-.17a.53.53,0,0,0-.22-.42C5.45,20.35,5.35,20.43,5.35,20.59Z"/><path class="cls-13" d="M1.67,18.51a.53.53,0,0,0,.22.42c.12.07.22,0,.22-.17a.53.53,0,0,0-.22-.42C1.77,18.27,1.67,18.35,1.67,18.51Z"/><path class="cls-14" d="M10.16,19A2.39,2.39,0,0,0,9,20.8l-.55.31a.71.71,0,0,0,.4.56l.76.43L10.12,21h0a2.74,2.74,0,0,0,.35-.78L11,19.11A.7.7,0,0,0,10.16,19Z"/><path class="cls-15" d="M11.38,20A2.58,2.58,0,0,1,10.3,22c-.6.35-1.08,0-1.08-.81a2.56,2.56,0,0,1,1.08-2.06C10.89,18.83,11.38,19.19,11.38,20Z"/><path class="cls-16" d="M11,20.23a1.66,1.66,0,0,1-.7,1.33c-.39.23-.7,0-.7-.53a1.66,1.66,0,0,1,.7-1.33C10.69,19.48,11,19.71,11,20.23Z"/><path class="cls-12" d="M10.8,20.34a1.19,1.19,0,0,1-.5,1c-.28.16-.5,0-.5-.38a1.19,1.19,0,0,1,.5-1C10.58,19.8,10.8,20,10.8,20.34Z"/><path class="cls-17" d="M10.54,20.49a.57.57,0,0,1-.24.46c-.13.08-.24,0-.24-.18a.59.59,0,0,1,.24-.46C10.43,20.23,10.54,20.31,10.54,20.49Z"/><path class="cls-17" d="M10.35,20.1a.09.09,0,0,1,0,.09s-.05,0-.05,0a.09.09,0,0,1,.05-.09S10.35,20.07,10.35,20.1Z"/><path class="cls-17" d="M10.66,20.1a.09.09,0,0,1-.05.09s0,0,0,0a.11.11,0,0,1,0-.09S10.66,20.07,10.66,20.1Z"/><path class="cls-17" d="M10.06,20.45a.09.09,0,0,1-.05.09s0,0,0,0a.09.09,0,0,1,0-.09S10.06,20.42,10.06,20.45Z"/><path class="cls-17" d="M10.66,20.76a.12.12,0,0,1-.05.09s0,0,0,0a.15.15,0,0,1,0-.09S10.66,20.72,10.66,20.76Z"/><path class="cls-17" d="M10.06,21.1a.09.09,0,0,1-.05.09s0,0,0,0a.09.09,0,0,1,0-.09S10.06,21.07,10.06,21.1Z"/><path class="cls-17" d="M10.74,20.41a.11.11,0,0,1-.05.08s0,0,0,0a.11.11,0,0,1,0-.09S10.74,20.37,10.74,20.41Z"/><path class="cls-17" d="M10,20.85a.15.15,0,0,1,0,.09s-.05,0-.05,0a.12.12,0,0,1,.05-.09S10,20.82,10,20.85Z"/><path class="cls-17" d="M10.35,21.1a.09.09,0,0,1,0,.09s-.05,0-.05,0a.09.09,0,0,1,.05-.09S10.35,21.07,10.35,21.1Z"/><path class="cls-14" d="M21,12.73a2.39,2.39,0,0,0-1.16,1.8l-.55.31a.76.76,0,0,0,.39.57l.76.42.52-1.14h0a2.65,2.65,0,0,0,.36-.78l.47-1.06A.71.71,0,0,0,21,12.73Z"/><path class="cls-15" d="M22.18,13.72a2.55,2.55,0,0,1-1.08,2c-.59.35-1.08,0-1.08-.81A2.6,2.6,0,0,1,21.1,12.9C21.7,12.56,22.18,12.92,22.18,13.72Z"/><path class="cls-16" d="M21.8,14a1.66,1.66,0,0,1-.7,1.33c-.38.23-.7,0-.7-.52a1.69,1.69,0,0,1,.7-1.34C21.49,13.21,21.8,13.45,21.8,14Z"/><path class="cls-12" d="M21.6,14.07a1.19,1.19,0,0,1-.5,1c-.27.16-.5,0-.5-.38a1.19,1.19,0,0,1,.5-1C21.38,13.54,21.6,13.7,21.6,14.07Z"/><path class="cls-17" d="M21.34,14.22a.58.58,0,0,1-.24.47c-.13.07-.24,0-.24-.19A.59.59,0,0,1,21.1,14C21.24,14,21.34,14.05,21.34,14.22Z"/><path class="cls-17" d="M21.15,13.84a.12.12,0,0,1,0,.09s0,0,0,0a.15.15,0,0,1,0-.09S21.15,13.8,21.15,13.84Z"/><path class="cls-17" d="M21.46,13.84a.15.15,0,0,1,0,.09s-.05,0-.05,0a.12.12,0,0,1,.05-.09S21.46,13.8,21.46,13.84Z"/><path class="cls-17" d="M20.86,14.18a.09.09,0,0,1-.05.09s0,0,0,0a.11.11,0,0,1,0-.09S20.86,14.15,20.86,14.18Z"/><path class="cls-17" d="M21.46,14.49a.15.15,0,0,1,0,.09s-.05,0-.05,0a.12.12,0,0,1,.05-.09S21.46,14.45,21.46,14.49Z"/><path class="cls-17" d="M20.86,14.84a.12.12,0,0,1-.05.09s0,0,0,0a.15.15,0,0,1,0-.09S20.86,14.8,20.86,14.84Z"/><path class="cls-17" d="M21.54,14.14a.12.12,0,0,1-.05.09s0,0,0,0a.15.15,0,0,1,0-.09S21.54,14.1,21.54,14.14Z"/><path class="cls-17" d="M20.77,14.58a.09.09,0,0,1-.05.09s0,0,0,0a.11.11,0,0,1,0-.09S20.77,14.55,20.77,14.58Z"/><path class="cls-17" d="M21.15,14.84a.12.12,0,0,1,0,.09s0,0,0,0a.15.15,0,0,1,0-.09S21.15,14.8,21.15,14.84Z"/></svg>