<svg id="Layer_1" data-name="Layer 1" xmlns="http://www.w3.org/2000/svg" viewBox="0 0 24 24"><defs><style>.cls-1{fill:#3cae73;}.cls-2{fill:#fff;}</style></defs><circle class="cls-1" cx="12" cy="12" r="11.97"/><g id="_01_align_center" data-name=" 01 align center"><path class="cls-2" d="M13.63,9.51l.16-1a1.47,1.47,0,0,0-1.21-1.69,1.51,1.51,0,0,0-.81.1,1.58,1.58,0,0,0-.76.75l-.89,1.82H7.85A1.44,1.44,0,0,0,6.4,11v4.33a1.45,1.45,0,0,0,1.45,1.45H17L18,11.41V9.51ZM7.37,15.28V11a.48.48,0,0,1,.48-.48H9.77v5.29H7.85A.47.47,0,0,1,7.37,15.28Zm9.62-4-.8,4.47H10.73V10.43L11.9,8.07a.51.51,0,0,1,.7-.2.41.41,0,0,1,.13.1.52.52,0,0,1,.11.4l-.35,2.1H17Z"/></g></svg>