<svg id="Layer_1" data-name="Layer 1" xmlns="http://www.w3.org/2000/svg" viewBox="0 0 24 24"><defs><style>.cls-1{fill:#fab67d;}.cls-2{fill:#fbb976;}.cls-3{fill:#c46528;}.cls-4{fill:#f9a346;}.cls-5{fill:#3cae73;}.cls-6{fill:#138453;}.cls-7{fill:#70c391;}.cls-8{fill:#fff;}.cls-9{fill:#a4a3a3;}.cls-10{fill:#d2d2d2;}.cls-11{fill:#3a3a3a;}.cls-12{fill:#4d4e4e;}.cls-13{fill:#707171;}.cls-14{fill:#30302f;}.cls-15{fill:#4a4a4a;}.cls-16{fill:#959595;}.cls-17{fill:#383838;}</style></defs><path class="cls-1" d="M17.42,4.76,6.31,11.18l5.24,3,11.1-6.42Zm-7.76,8-2.77-1.6L17.4,5.05l4.67,2.7L11.55,13.83Z"/><polygon class="cls-2" points="17.4 8.27 17.4 5.05 6.89 11.14 9.66 12.74 17.4 8.27 17.4 8.27"/><polygon class="cls-3" points="19.29 9.36 17.4 8.27 9.66 12.74 11.55 13.83 19.29 9.36"/><polygon class="cls-4" points="17.4 5.05 17.4 8.27 19.29 9.36 22.07 7.75 17.4 5.05"/><polygon class="cls-4" points="11.55 17.46 22.65 11.05 22.65 7.79 11.55 14.21 11.55 17.46"/><polygon class="cls-2" points="11.82 14.46 11.82 16.97 22.35 10.89 22.35 8.38 11.82 14.46"/><path class="cls-1" d="M17.42,4.76,15.48,5.88a2.12,2.12,0,0,1,.11.21l1.81-1,4.67,2.7L11.55,13.83,9.66,12.74l-2.77-1.6L9.14,9.83a.41.41,0,0,1-.08-.24L6.31,11.18l5.24,3,11.1-6.42Z"/><polygon class="cls-4" points="12.21 14.71 12.21 14.97 21.93 9.35 21.93 9.1 12.21 14.71"/><polygon class="cls-4" points="12.21 15.38 12.21 15.63 21.93 10.02 21.93 9.76 12.21 15.38"/><polygon class="cls-5" points="8.38 13.83 11.55 12.03 6.32 9.01 3.17 10.82 8.38 13.83"/><polygon class="cls-6" points="11.55 12.03 11.55 17.46 6.1 20.61 6.1 18.5 8.38 13.83 11.55 12.03"/><polygon class="cls-5" points="0.9 15.57 0.9 17.59 6.1 20.59 6.1 18.57 0.9 15.57"/><polygon class="cls-7" points="8.38 13.83 6.1 18.57 0.9 15.57 3.17 10.82 8.38 13.83"/><polygon class="cls-8" points="3.36 11.57 1.52 15.43 5.85 17.94 7.7 14.08 3.36 11.57"/><polygon class="cls-9" points="8.96 14.21 11.1 12.97 11.1 12.76 8.73 14.13 7.92 15.94 7.92 17.83 8.15 17.69 8.15 16.02 8.96 14.21"/><polygon class="cls-10" points="10 15.82 11.1 15.19 11.1 12.97 8.96 14.21 8.15 16.02 8.15 17.69 9.7 16.8 10 15.82"/><polygon class="cls-11" points="0.45 17.41 5.93 20.55 5.91 21.2 0.45 18.04 0.45 17.41"/><polygon class="cls-12" points="5.91 20.56 5.91 21.2 6.92 20.61 6.92 19.98 5.91 20.56"/><polygon class="cls-13" points="6.67 19.83 5.91 20.27 0.7 17.26 0.45 17.41 5.91 20.56 6.92 19.98 6.67 19.83"/><polygon class="cls-11" points="2.15 17.64 2.15 17.88 4.64 19.32 4.64 19.09 2.15 17.64"/><polygon class="cls-11" points="2.15 17.2 2.15 17.44 4.64 18.88 4.64 18.64 2.15 17.2"/><polygon class="cls-11" points="2.15 16.76 2.15 16.99 4.64 18.44 4.64 18.2 2.15 16.76"/><polygon class="cls-8" points="1.97 16.8 0.9 16.19 0.9 16.98 1.97 17.6 1.97 16.8"/><polygon class="cls-8" points="4.93 18.51 4.93 19.32 6.1 19.99 6.1 19.19 4.93 18.51"/><polygon class="cls-13" points="1.52 15.43 2.11 14.19 6.45 16.7 5.85 17.94 1.52 15.43"/><polygon class="cls-5" points="8.66 18.03 8.74 17.77 6.92 18.82 6.92 17.64 6.78 17.92 6.78 19.11 8.66 18.03"/><polygon class="cls-5" points="6.63 18.2 6.45 18.57 6.45 19.64 8.51 18.45 8.6 18.19 6.63 19.32 6.63 18.2"/><path class="cls-2" d="M1,16.62a.51.51,0,0,0,.22.43c.12.07.22,0,.22-.17a.53.53,0,0,0-.22-.42C1,16.39,1,16.46,1,16.62Z"/><path class="cls-2" d="M1.45,16.91a.53.53,0,0,0,.22.42c.13.07.22,0,.22-.17a.51.51,0,0,0-.22-.42C1.55,16.67,1.45,16.74,1.45,16.91Z"/><path class="cls-2" d="M5,19a.52.52,0,0,0,.22.42c.12.08.22,0,.22-.16a.53.53,0,0,0-.22-.42C5.14,18.74,5,18.81,5,19Z"/><path class="cls-2" d="M5.55,19.25a.54.54,0,0,0,.22.43c.12.07.22,0,.22-.17a.53.53,0,0,0-.22-.42C5.65,19,5.55,19.09,5.55,19.25Z"/><path class="cls-14" d="M9.73,17.39a2.37,2.37,0,0,0-1.16,1.8L8,19.5a.72.72,0,0,0,.39.56l.76.43.52-1.15h0a2.77,2.77,0,0,0,.36-.78l.47-1.06A.7.7,0,0,0,9.73,17.39Z"/><path class="cls-15" d="M11,18.37a2.56,2.56,0,0,1-1.08,2.06c-.59.35-1.08,0-1.08-.81a2.58,2.58,0,0,1,1.08-2.06C10.47,17.22,11,17.58,11,18.37Z"/><path class="cls-16" d="M10.57,18.62A1.66,1.66,0,0,1,9.87,20c-.38.23-.7,0-.7-.53a1.68,1.68,0,0,1,.7-1.33C10.26,17.87,10.57,18.1,10.57,18.62Z"/><path class="cls-8" d="M10.37,18.73a1.19,1.19,0,0,1-.5,1c-.27.16-.5,0-.5-.38a1.22,1.22,0,0,1,.5-1C10.15,18.19,10.37,18.36,10.37,18.73Z"/><path class="cls-17" d="M10.11,18.88a.54.54,0,0,1-.24.46c-.13.08-.24,0-.24-.18a.59.59,0,0,1,.24-.46C10,18.62,10.11,18.7,10.11,18.88Z"/><path class="cls-17" d="M9.92,18.49a.09.09,0,0,1-.05.09s0,0,0,0a.11.11,0,0,1,0-.09S9.92,18.46,9.92,18.49Z"/><path class="cls-17" d="M10.23,18.49a.11.11,0,0,1,0,.09s0,0,0,0a.09.09,0,0,1,0-.09S10.23,18.46,10.23,18.49Z"/><path class="cls-17" d="M9.63,18.84a.09.09,0,0,1-.05.09s0,0,0,0a.11.11,0,0,1,0-.09S9.63,18.81,9.63,18.84Z"/><path class="cls-17" d="M10.23,19.15a.15.15,0,0,1,0,.09s0,0,0,0a.12.12,0,0,1,0-.09S10.23,19.11,10.23,19.15Z"/><path class="cls-17" d="M9.63,19.49a.09.09,0,0,1-.05.09s0,0,0,0a.11.11,0,0,1,0-.09S9.63,19.46,9.63,19.49Z"/><path class="cls-17" d="M10.31,18.8a.09.09,0,0,1-.05.08s0,0,0,0a.13.13,0,0,1,0-.09S10.31,18.76,10.31,18.8Z"/><path class="cls-17" d="M9.54,19.24a.12.12,0,0,1,0,.09s-.05,0-.05,0a.16.16,0,0,1,.05-.09S9.54,19.21,9.54,19.24Z"/><path class="cls-17" d="M9.92,19.49a.09.09,0,0,1-.05.09s0,0,0,0a.11.11,0,0,1,0-.09S9.92,19.46,9.92,19.49Z"/><path class="cls-14" d="M20.41,11.21A2.38,2.38,0,0,0,19.24,13l-.55.32a.72.72,0,0,0,.39.56l.77.43.52-1.15h0a3.12,3.12,0,0,0,.35-.79l.48-1A.7.7,0,0,0,20.41,11.21Z"/><path class="cls-15" d="M21.62,12.19a2.58,2.58,0,0,1-1.07,2.06c-.6.35-1.08,0-1.08-.81a2.56,2.56,0,0,1,1.08-2.06C21.14,11,21.62,11.4,21.62,12.19Z"/><path class="cls-16" d="M21.24,12.44a1.68,1.68,0,0,1-.69,1.33c-.39.22-.7,0-.7-.53a1.66,1.66,0,0,1,.7-1.33C20.93,11.69,21.24,11.92,21.24,12.44Z"/><path class="cls-8" d="M21.05,12.55a1.22,1.22,0,0,1-.5,1c-.28.16-.51,0-.51-.38a1.2,1.2,0,0,1,.51-1C20.82,12,21.05,12.18,21.05,12.55Z"/><path class="cls-17" d="M20.79,12.7a.57.57,0,0,1-.24.46c-.14.08-.25,0-.25-.18a.55.55,0,0,1,.25-.46C20.68,12.44,20.79,12.52,20.79,12.7Z"/><path class="cls-17" d="M20.59,12.31a.11.11,0,0,1,0,.09s-.05,0-.05,0a.09.09,0,0,1,.05-.09S20.59,12.28,20.59,12.31Z"/><path class="cls-17" d="M20.91,12.31a.09.09,0,0,1-.05.09s-.05,0-.05,0a.09.09,0,0,1,.05-.09S20.91,12.28,20.91,12.31Z"/><path class="cls-17" d="M20.3,12.66a.13.13,0,0,1,0,.09s-.05,0-.05,0a.09.09,0,0,1,.05-.08S20.3,12.63,20.3,12.66Z"/><path class="cls-17" d="M20.91,13a.09.09,0,0,1-.05.08s-.05,0-.05,0a.12.12,0,0,1,.05-.09S20.91,12.93,20.91,13Z"/><path class="cls-17" d="M20.3,13.31a.11.11,0,0,1,0,.09s-.05,0-.05,0a.09.09,0,0,1,.05-.09S20.3,13.28,20.3,13.31Z"/><path class="cls-17" d="M21,12.61a.11.11,0,0,1,0,.09s-.05,0-.05,0a.09.09,0,0,1,.05-.09S21,12.58,21,12.61Z"/><path class="cls-17" d="M20.21,13.06a.12.12,0,0,1-.05.09s0,0,0,0a.15.15,0,0,1,0-.09S20.21,13,20.21,13.06Z"/><path class="cls-17" d="M20.59,13.31a.11.11,0,0,1,0,.09s-.05,0-.05,0a.09.09,0,0,1,.05-.09S20.59,13.28,20.59,13.31Z"/></svg>