<svg id="Layer_1" data-name="Layer 1" xmlns="http://www.w3.org/2000/svg" viewBox="0 0 24 24"><defs><style>.cls-1{fill:#3cae73;}</style></defs><path class="cls-1" d="M7.47,13A4.48,4.48,0,1,1,12,8.53,4.48,4.48,0,0,1,7.47,13Zm0-7A2.49,2.49,0,1,0,10,8.53,2.48,2.48,0,0,0,7.47,6ZM14.94,20a5,5,0,0,0-5-5H5a5,5,0,0,0-5,5v4H2V20a3,3,0,0,1,3-3h5a3,3,0,0,1,3,3v4h2ZM17.43,9a4.49,4.49,0,1,1,4.48-4.49A4.49,4.49,0,0,1,17.43,9Zm0-7a2.49,2.49,0,1,0,2.49,2.49A2.5,2.5,0,0,0,17.43,2.05ZM23.9,16a5,5,0,0,0-5-5h-4v2h4a3,3,0,0,1,3,3v4h2Z"/></svg>