<svg id="Layer_1" data-name="Layer 1" xmlns="http://www.w3.org/2000/svg" viewBox="0 0 24 24"><defs><style>.cls-1{fill:#515552;}</style></defs><path class="cls-1" d="M20.15,11.24h-.74l-.15,2h2.42l0-.29A1.53,1.53,0,0,0,20.15,11.24Z"/><path class="cls-1" d="M23.94,13a3.85,3.85,0,0,0-3.89-4.2H17l.23-3.13H6.16l-.92,12.5H8.18a2,2,0,0,1,1.93-1.79,1.64,1.64,0,0,1,1.66,1.79h6.39a2,2,0,0,1,1.93-1.79,1.64,1.64,0,0,1,1.66,1.79h1.82Zm-8.46,4.23H12.61a2.51,2.51,0,0,0-2.43-1.79,3,3,0,0,0-2.7,1.79H6.25L7,6.6h9.22l-.16,2.19Zm7.22,0h-.11a2.51,2.51,0,0,0-2.43-1.79,3,3,0,0,0-2.7,1.79h-1L17,9.73h3A3,3,0,0,1,23,13Z"/><ellipse class="cls-1" cx="9.98" cy="18.16" rx="1.18" ry="1.1" transform="translate(-9.81 12.01) rotate(-43.95)"/><ellipse class="cls-1" cx="19.96" cy="18.16" rx="1.18" ry="1.1" transform="translate(-7.02 18.94) rotate(-43.95)"/><rect class="cls-1" y="9.1" width="6.25" height="0.49"/><rect class="cls-1" x="2.12" y="11" width="6.25" height="0.49"/><rect class="cls-1" x="1.04" y="12.95" width="6.25" height="0.49"/></svg>