<svg id="Layer_1" data-name="Layer 1" xmlns="http://www.w3.org/2000/svg" viewBox="0 0 24 24"><defs><style>.cls-1{fill:#3cae73;}</style></defs><path class="cls-1" d="M21.43,20.88H2.57A2.57,2.57,0,0,1,0,18.31V5.82A2.57,2.57,0,0,1,2.57,3.26H21.43A2.57,2.57,0,0,1,24,5.82V18.31A2.57,2.57,0,0,1,21.43,20.88ZM2.57,5.24A.59.59,0,0,0,2,5.82V18.31a.59.59,0,0,0,.59.58H21.43a.59.59,0,0,0,.59-.58V5.82a.59.59,0,0,0-.59-.58Z"/><rect class="cls-1" x="5.96" y="8.28" width="12.16" height="0.99"/><rect class="cls-1" x="5.96" y="11.14" width="12.16" height="0.99"/><rect class="cls-1" x="5.96" y="14" width="12.16" height="0.99"/></svg>