<svg id="Layer_1" data-name="Layer 1" xmlns="http://www.w3.org/2000/svg" viewBox="0 0 24 24"><defs><style>.cls-1{fill:#30302f;}.cls-2{fill:#4a4a4a;}.cls-3{fill:#959595;}.cls-4{fill:#fff;}.cls-5{fill:#383838;}.cls-6{fill:#6b6b6b;}.cls-7{fill:#5b5b5c;}.cls-8{fill:#8b8b8b;}.cls-9{fill:#262626;}.cls-10{fill:#ececec;}.cls-11{fill:#cbcbca;}.cls-12{fill:#a4a3a3;}.cls-13{fill:#8d8d8d;}.cls-14{fill:#70c391;}.cls-15{fill:#138453;}.cls-16{fill:#3cae73;}.cls-17{fill:#fbb976;}.cls-18{fill:#ef5073;}.cls-19{fill:#106c41;}.cls-20{fill:#bababa;}.cls-21{fill:#cdcdcd;}</style></defs><polygon class="cls-1" points="14.46 14.72 15.42 15.28 15.42 16.27 14.46 15.71 14.46 14.72"/><path class="cls-1" d="M22.64,10.75a2.09,2.09,0,0,1-.88,1.67c-.48.28-.87,0-.87-.66a2.07,2.07,0,0,1,.87-1.67C22.25,9.81,22.64,10.1,22.64,10.75Z"/><polygon class="cls-1" points="21.85 12.83 21.22 12.48 22.35 10.05 22.96 10.39 21.85 12.83"/><path class="cls-2" d="M23.3,11.11a2.12,2.12,0,0,1-.88,1.68c-.48.27-.88,0-.88-.67a2.11,2.11,0,0,1,.88-1.67C22.9,10.17,23.3,10.47,23.3,11.11Z"/><path class="cls-3" d="M23,11.31a1.39,1.39,0,0,1-.57,1.09c-.31.18-.57,0-.57-.43a1.38,1.38,0,0,1,.57-1.09C22.73,10.7,23,10.89,23,11.31Z"/><path class="cls-4" d="M22.83,11.4a1,1,0,0,1-.41.78c-.22.13-.41,0-.41-.31a1,1,0,0,1,.41-.77C22.65,11,22.83,11.1,22.83,11.4Z"/><path class="cls-5" d="M22.62,11.53a.46.46,0,0,1-.2.37c-.11.06-.2,0-.2-.15a.46.46,0,0,1,.2-.37C22.53,11.31,22.62,11.38,22.62,11.53Z"/><path class="cls-5" d="M22.46,11.21a.08.08,0,0,1,0,.07s0,0,0,0a.1.1,0,0,1,0-.07S22.46,11.18,22.46,11.21Z"/><path class="cls-5" d="M22.71,11.21a.08.08,0,0,1,0,.07s0,0,0,0,0-.06,0-.07S22.71,11.18,22.71,11.21Z"/><path class="cls-5" d="M22.22,11.49a.11.11,0,0,1,0,.08s0,0,0,0a.07.07,0,0,1,0-.07S22.22,11.47,22.22,11.49Z"/><path class="cls-5" d="M22.71,11.74a.08.08,0,0,1,0,.07s0,0,0,0,0-.06,0-.07S22.71,11.71,22.71,11.74Z"/><path class="cls-5" d="M22.22,12a.11.11,0,0,1,0,.08s0,0,0,0a.07.07,0,0,1,0-.07S22.22,12,22.22,12Z"/><path class="cls-5" d="M22.77,11.46s0,.06,0,.07,0,0,0,0a.08.08,0,0,1,0-.07S22.77,11.43,22.77,11.46Z"/><path class="cls-5" d="M22.15,11.82a.1.1,0,0,1,0,.07s0,0,0,0a.08.08,0,0,1,0-.07S22.15,11.79,22.15,11.82Z"/><path class="cls-5" d="M22.46,12a.12.12,0,0,1,0,.08s0,0,0,0a.08.08,0,0,1,0-.07S22.46,12,22.46,12Z"/><path class="cls-1" d="M20.58,12a2.1,2.1,0,0,1-.87,1.67c-.49.28-.88,0-.88-.66a2.09,2.09,0,0,1,.88-1.67C20.19,11,20.58,11.31,20.58,12Z"/><polygon class="cls-1" points="19.8 14.04 19.16 13.68 20.3 11.25 20.9 11.59 19.8 14.04"/><path class="cls-2" d="M21.24,12.32A2.1,2.1,0,0,1,20.37,14c-.49.28-.88,0-.88-.66a2.09,2.09,0,0,1,.88-1.68C20.85,11.38,21.24,11.67,21.24,12.32Z"/><path class="cls-3" d="M20.93,12.51a1.37,1.37,0,0,1-.56,1.09c-.32.18-.57,0-.57-.43a1.33,1.33,0,0,1,.57-1.08C20.68,11.9,20.93,12.1,20.93,12.51Z"/><path class="cls-4" d="M20.77,12.61a1,1,0,0,1-.4.78c-.23.13-.41,0-.41-.31a1,1,0,0,1,.41-.78C20.59,12.17,20.77,12.31,20.77,12.61Z"/><path class="cls-5" d="M20.56,12.73a.48.48,0,0,1-.19.37c-.11.07-.2,0-.2-.14a.47.47,0,0,1,.2-.38C20.47,12.52,20.56,12.58,20.56,12.73Z"/><path class="cls-5" d="M20.4,12.41a.11.11,0,0,1,0,.08s0,0,0,0a.07.07,0,0,1,0-.07S20.4,12.39,20.4,12.41Z"/><path class="cls-5" d="M20.66,12.41a.12.12,0,0,1,0,.08s0,0,0,0a.08.08,0,0,1,0-.07S20.66,12.39,20.66,12.41Z"/><path class="cls-5" d="M20.17,12.7a.1.1,0,0,1,0,.07s0,0,0,0a.08.08,0,0,1,0-.07S20.17,12.67,20.17,12.7Z"/><path class="cls-5" d="M20.66,12.94a.12.12,0,0,1,0,.08s0,0,0,0a.08.08,0,0,1,0-.07S20.66,12.92,20.66,12.94Z"/><path class="cls-5" d="M20.17,13.23a.1.1,0,0,1,0,.07s0,0,0,0a.08.08,0,0,1,0-.07S20.17,13.2,20.17,13.23Z"/><path class="cls-5" d="M20.72,12.66a.08.08,0,0,1,0,.07s0,0,0,0a.08.08,0,0,1,0-.07S20.72,12.63,20.72,12.66Z"/><path class="cls-5" d="M20.09,13a.08.08,0,0,1,0,.07s0,0,0,0,0-.06,0-.07S20.09,13,20.09,13Z"/><path class="cls-5" d="M20.4,13.23s0,.06,0,.07,0,0,0,0a.07.07,0,0,1,0-.07S20.4,13.2,20.4,13.23Z"/><polygon class="cls-6" points="13.67 14.41 17.54 12.11 19.29 13.12 15.42 15.42 13.67 14.41"/><polygon class="cls-7" points="15.42 15.41 15.42 16.27 19.29 13.98 19.29 13.12 15.42 15.41"/><polygon class="cls-8" points="15.42 16.02 15.42 16.11 19.13 13.94 19.13 13.84 15.42 16.02"/><polygon class="cls-8" points="15.42 15.81 15.42 15.9 19.13 13.73 19.13 13.63 15.42 15.81"/><path class="cls-1" d="M14.61,15.36A2.11,2.11,0,0,1,13.74,17c-.49.28-.88,0-.88-.66a2.09,2.09,0,0,1,.88-1.68C14.22,14.42,14.61,14.72,14.61,15.36Z"/><polygon class="cls-1" points="13.83 17.45 13.19 17.1 14.32 14.67 14.93 15.01 13.83 17.45"/><path class="cls-2" d="M15.27,15.73a2.07,2.07,0,0,1-.88,1.67c-.48.28-.87,0-.87-.66a2.1,2.1,0,0,1,.87-1.67C14.88,14.79,15.27,15.09,15.27,15.73Z"/><path class="cls-3" d="M15,15.93A1.33,1.33,0,0,1,14.39,17c-.31.18-.56,0-.56-.43a1.36,1.36,0,0,1,.56-1.08C14.71,15.32,15,15.51,15,15.93Z"/><path class="cls-4" d="M14.8,16a1,1,0,0,1-.41.78c-.22.13-.4,0-.4-.31a1,1,0,0,1,.4-.78C14.62,15.58,14.8,15.72,14.8,16Z"/><path class="cls-5" d="M14.59,16.14a.47.47,0,0,1-.2.38c-.1.06-.19,0-.19-.15a.52.52,0,0,1,.19-.38C14.5,15.93,14.59,16,14.59,16.14Z"/><path class="cls-5" d="M14.43,15.83a.07.07,0,0,1,0,.07s0,0,0,0,0-.06,0-.07S14.43,15.8,14.43,15.83Z"/><path class="cls-5" d="M14.69,15.83a.08.08,0,0,1,0,.07s0,0,0,0a.1.1,0,0,1,0-.07S14.69,15.8,14.69,15.83Z"/><path class="cls-5" d="M14.2,16.11a.08.08,0,0,1,0,.07s0,0,0,0a.12.12,0,0,1,0-.08S14.2,16.08,14.2,16.11Z"/><path class="cls-5" d="M14.69,16.36a.08.08,0,0,1,0,.07s0,0,0,0a.1.1,0,0,1,0-.07S14.69,16.33,14.69,16.36Z"/><path class="cls-5" d="M14.2,16.64a.08.08,0,0,1,0,.07s0,0,0,0a.12.12,0,0,1,0-.08S14.2,16.61,14.2,16.64Z"/><path class="cls-5" d="M14.75,16.07a.12.12,0,0,1,0,.08s0,0,0,0a.08.08,0,0,1,0-.07S14.75,16.05,14.75,16.07Z"/><path class="cls-5" d="M14.12,16.43a.09.09,0,0,1,0,.08s0,0,0,0a.08.08,0,0,1,0-.07S14.12,16.41,14.12,16.43Z"/><path class="cls-5" d="M14.43,16.64a.07.07,0,0,1,0,.07s0,0,0,0a.11.11,0,0,1,0-.08S14.43,16.61,14.43,16.64Z"/><path class="cls-1" d="M12.79,16.42a2.09,2.09,0,0,1-.88,1.67c-.48.28-.87,0-.87-.66a2.1,2.1,0,0,1,.87-1.67C12.4,15.48,12.79,15.77,12.79,16.42Z"/><polygon class="cls-1" points="12.01 18.51 11.37 18.15 12.5 15.72 13.11 16.06 12.01 18.51"/><path class="cls-2" d="M13.45,16.79a2.09,2.09,0,0,1-.88,1.67c-.48.28-.87,0-.87-.66a2.11,2.11,0,0,1,.87-1.68C13.06,15.84,13.45,16.14,13.45,16.79Z"/><path class="cls-3" d="M13.14,17a1.35,1.35,0,0,1-.57,1.09c-.31.18-.57,0-.57-.43a1.39,1.39,0,0,1,.57-1.09C12.89,16.37,13.14,16.57,13.14,17Z"/><ellipse class="cls-4" cx="12.57" cy="17.31" rx="0.63" ry="0.35" transform="translate(-8.28 22.1) rotate(-66.95)"/><path class="cls-5" d="M12.77,17.2a.46.46,0,0,1-.2.37c-.11.07-.19,0-.19-.14a.46.46,0,0,1,.19-.38C12.68,17,12.77,17.05,12.77,17.2Z"/><path class="cls-5" d="M12.61,16.88a.12.12,0,0,1,0,.08s0,0,0,0a.12.12,0,0,1,0-.08S12.61,16.86,12.61,16.88Z"/><path class="cls-5" d="M12.87,16.88a.12.12,0,0,1,0,.08s0,0,0,0a.12.12,0,0,1,0-.08S12.87,16.86,12.87,16.88Z"/><path class="cls-5" d="M12.38,17.17a.1.1,0,0,1,0,.07s0,0,0,0a.08.08,0,0,1,0-.07S12.38,17.14,12.38,17.17Z"/><path class="cls-5" d="M12.87,17.41a.12.12,0,0,1,0,.08s0,0,0,0a.12.12,0,0,1,0-.08S12.87,17.39,12.87,17.41Z"/><path class="cls-5" d="M12.38,17.7a.1.1,0,0,1,0,.07s0,0,0,0a.08.08,0,0,1,0-.07S12.38,17.67,12.38,17.7Z"/><path class="cls-5" d="M12.93,17.13a.08.08,0,0,1,0,.07s0,0,0,0a.08.08,0,0,1,0-.07S12.93,17.1,12.93,17.13Z"/><path class="cls-5" d="M12.3,17.49a.08.08,0,0,1,0,.07s0,0,0,0a.08.08,0,0,1,0-.07S12.3,17.46,12.3,17.49Z"/><path class="cls-5" d="M12.61,17.7a.1.1,0,0,1,0,.07s0,0,0,0a.08.08,0,0,1,0-.07S12.61,17.67,12.61,17.7Z"/><path class="cls-9" d="M8.52,19.4,7.85,19l-.45-.37.39-.15S8.7,18.77,8.52,19.4Z"/><polygon class="cls-6" points="6.66 18.43 9.78 16.65 11.53 17.66 8.4 19.45 6.66 18.43"/><polygon class="cls-7" points="11.53 17.66 8.38 19.46 8.38 20.31 11.53 18.51 11.53 17.66"/><polygon class="cls-8" points="10.39 18.92 8.68 19.91 8.68 20 10.39 19.02 10.39 18.92"/><polygon class="cls-8" points="10.39 18.71 8.68 19.7 8.68 19.79 10.39 18.81 10.39 18.71"/><polygon class="cls-10" points="10.1 10.68 23.2 3.13 18.6 0.48 5.51 8.03 10.1 10.68"/><polygon class="cls-11" points="6.2 8.16 18.82 0.89 18.56 0.76 5.94 8.03 6.2 8.16"/><polygon class="cls-11" points="10.13 10.42 22.75 3.15 22.49 3.01 9.87 10.29 10.13 10.42"/><polygon class="cls-11" points="5.51 8.03 5.51 13.77 5.51 14.22 5.51 15.25 10.1 17.9 10.1 16.87 10.1 16.42 10.1 10.68 5.51 8.03"/><polygon class="cls-4" points="17.58 7.53 14.03 9.58 13.49 10.28 17.58 7.92 17.58 7.53"/><polygon class="cls-4" points="17.58 6.84 14.89 8.42 14.35 9.12 17.58 7.23 17.58 6.84"/><polygon class="cls-12" points="10.1 10.67 10.1 16.42 10.1 17.23 10.1 17.9 23.2 10.35 23.2 9.67 23.2 8.87 23.2 3.11 10.1 10.67"/><polygon class="cls-13" points="10.86 10.66 10.69 10.76 10.69 17.08 10.86 16.98 10.86 10.66"/><polygon class="cls-13" points="11.62 10.23 11.45 10.32 11.45 16.64 11.62 16.55 11.62 10.23"/><polygon class="cls-13" points="14.22 8.72 14.05 8.82 14.05 15.14 14.22 15.04 14.22 8.72"/><polygon class="cls-13" points="14.98 8.28 14.81 8.38 14.81 14.7 14.98 14.6 14.98 8.28"/><polygon class="cls-13" points="15.79 7.83 15.62 7.92 15.62 14.24 15.79 14.14 15.79 7.83"/><polygon class="cls-13" points="16.55 7.39 16.38 7.49 16.38 13.8 16.55 13.71 16.55 7.39"/><polygon class="cls-13" points="17.38 6.88 17.21 6.98 17.21 13.3 17.38 13.2 17.38 6.88"/><polygon class="cls-13" points="18.14 6.44 17.97 6.54 17.97 12.86 18.14 12.76 18.14 6.44"/><polygon class="cls-13" points="21.25 4.63 21.08 4.73 21.08 11.05 21.25 10.95 21.25 4.63"/><polygon class="cls-13" points="22.01 4.19 21.84 4.29 21.84 10.61 22.01 10.51 22.01 4.19"/><path class="cls-1" d="M7.81,19.33A2.11,2.11,0,0,1,6.94,21c-.49.27-.88,0-.88-.67a2.09,2.09,0,0,1,.88-1.67C7.42,18.39,7.81,18.69,7.81,19.33Z"/><polygon class="cls-1" points="7.03 21.42 6.39 21.06 7.52 18.64 8.13 18.97 7.03 21.42"/><path class="cls-2" d="M8.47,19.7a2.09,2.09,0,0,1-.88,1.67c-.48.28-.87,0-.87-.66A2.1,2.1,0,0,1,7.59,19C8.08,18.76,8.47,19.05,8.47,19.7Z"/><path class="cls-3" d="M8.16,19.9A1.33,1.33,0,0,1,7.59,21c-.31.18-.56,0-.56-.43a1.36,1.36,0,0,1,.56-1.08C7.91,19.29,8.16,19.48,8.16,19.9Z"/><ellipse class="cls-4" cx="7.59" cy="20.23" rx="0.63" ry="0.35" transform="translate(-13.99 19.29) rotate(-66.95)"/><path class="cls-5" d="M7.79,20.11a.47.47,0,0,1-.2.38c-.1.06-.19,0-.19-.15A.5.5,0,0,1,7.59,20C7.7,19.9,7.79,20,7.79,20.11Z"/><path class="cls-5" d="M7.63,19.8a.07.07,0,0,1,0,.07s0,0,0,0a.08.08,0,0,1,0-.07S7.63,19.77,7.63,19.8Z"/><path class="cls-5" d="M7.89,19.8a.08.08,0,0,1,0,.07s0,0,0,0a.08.08,0,0,1,0-.07S7.89,19.77,7.89,19.8Z"/><path class="cls-5" d="M7.4,20.08a.08.08,0,0,1,0,.07s0,0,0,0a.1.1,0,0,1,0-.07S7.4,20.05,7.4,20.08Z"/><path class="cls-5" d="M7.89,20.33a.08.08,0,0,1,0,.07s0,0,0,0a.08.08,0,0,1,0-.07S7.89,20.3,7.89,20.33Z"/><path class="cls-5" d="M7.4,20.61a.08.08,0,0,1,0,.07s0,0,0,0a.1.1,0,0,1,0-.07S7.4,20.58,7.4,20.61Z"/><path class="cls-5" d="M8,20a.08.08,0,0,1,0,.07s0,0,0,0a.12.12,0,0,1,0-.08S8,20,8,20Z"/><path class="cls-5" d="M7.32,20.4a.07.07,0,0,1,0,.07s0,0,0,0a.11.11,0,0,1,0-.08S7.32,20.37,7.32,20.4Z"/><path class="cls-5" d="M7.63,20.61a.07.07,0,0,1,0,.07s0,0,0,0,0-.06,0-.07S7.63,20.58,7.63,20.61Z"/><polygon class="cls-14" points="7.47 15.01 4.82 13.76 4.82 10.67 1.53 12.57 7.08 15.77 7.47 15.01"/><path class="cls-14" d="M.53,14.47.34,16.54l0,2.28,1.33-.77L4.94,20l1.7-3.32L.9,13.31A3.16,3.16,0,0,0,.53,14.47Z"/><path class="cls-14" d="M1.53,12.57h0a1.69,1.69,0,0,0-.61.73l5.74,3.32.44-.86Z"/><path class="cls-15" d="M9.39,13.32,6.07,15.24a2.83,2.83,0,0,0-1,1.88l-.17,2.07v2.29l1.38-.8a2.81,2.81,0,0,1,1.16-1.93c.57-.33,1-.06,1.16.59l.76-.44Z"/><polygon class="cls-16" points="7.04 19.1 7.04 14.69 7.13 14.64 7.13 19.1 7.04 19.1"/><path class="cls-4" d="M7.47,18.87a2.53,2.53,0,0,0-1,1.75l-.11.06a2.81,2.81,0,0,1,1.16-1.93c.57-.33,1-.06,1.16.59l-.11.06C8.42,18.81,8,18.57,7.47,18.87Z"/><polygon class="cls-16" points="0.34 16.54 4.93 19.19 4.93 21.48 0.34 18.82 0.34 16.54"/><path class="cls-17" d="M.33,17l.39.25a.54.54,0,0,1,.23.44v.64c0,.16-.1.24-.23.17l-.39-.25Z"/><path class="cls-17" d="M4.53,19.46l.4.23v1.24l-.4-.23a.53.53,0,0,1-.22-.42v-.65C4.31,19.47,4.41,19.39,4.53,19.46Z"/><path class="cls-4" d="M4.41,19.74a.5.5,0,0,0,.21.4c.12.07.21,0,.21-.16a.5.5,0,0,0-.21-.4C4.5,19.51,4.41,19.58,4.41,19.74Z"/><path class="cls-4" d="M4.5,20.39a.39.39,0,0,0,.17.31c.09.05.16,0,.16-.13a.38.38,0,0,0-.16-.31C4.58,20.21,4.5,20.26,4.5,20.39Z"/><path class="cls-4" d="M.41,17.42a.53.53,0,0,0,.21.4c.12.07.21,0,.21-.16a.5.5,0,0,0-.21-.4C.51,17.19.41,17.26.41,17.42Z"/><path class="cls-4" d="M.51,18.06a.39.39,0,0,0,.16.32c.09.05.16,0,.16-.13a.38.38,0,0,0-.16-.31C.58,17.89.51,17.94.51,18.06Z"/><polygon class="cls-11" points="4.95 21.51 4.93 21.99 4.14 21.53 4.14 21.05 4.95 21.51"/><polygon class="cls-11" points="0.04 18.69 0.84 19.15 0.84 19.62 0.04 19.16 0.04 18.69"/><polygon class="cls-5" points="4.14 21.05 4.14 21.53 0.84 19.62 0.84 19.15 4.14 21.05"/><polygon class="cls-4" points="1.39 19.57 3.48 20.77 3.48 21.05 1.39 19.85 1.39 19.57"/><path class="cls-12" d="M4.93,21.52V22l.59-.34a.32.32,0,0,0,.16-.22v-.34Z"/><path class="cls-10" d="M5.81,20.8l-.88.51L.34,18.65v-.13l-.3.17,4.89,2.83.61-.35A.61.61,0,0,0,5.78,21Z"/><path class="cls-4" d="M1,19.46a.33.33,0,0,0,.12.24c.07,0,.13,0,.13-.1a.29.29,0,0,0-.13-.23C1,19.33,1,19.37,1,19.46Z"/><polygon class="cls-18" points="6.09 15.24 9.38 13.33 4.79 10.68 1.5 12.58 6.09 15.24"/><path class="cls-16" d="M4.86,10l-.57.27a10,10,0,0,0-2.12,1.25,3.38,3.38,0,0,0-.68,1l4.59,2.65a3.2,3.2,0,0,1,.68-1A10.52,10.52,0,0,1,8.92,13a2.77,2.77,0,0,0,.47-.27Z"/><path class="cls-14" d="M2.53,11.28a2,2,0,0,0-.68.67l4.81,2.77.7-.7Z"/><path class="cls-19" d="M8.73,13a8.62,8.62,0,0,0-2,1.18,3.2,3.2,0,0,0-.68,1l3.31-1.83v-.69Z"/><polygon class="cls-4" points="5.91 20.55 6.21 20.38 6.21 19.98 5.91 20.15 5.91 20.55"/><polygon class="cls-20" points="5.83 20.11 5.91 20.15 5.91 20.55 5.83 20.5 5.83 20.11"/><polygon class="cls-21" points="5.83 20.11 6.13 19.93 6.21 19.98 5.91 20.15 5.83 20.11"/><polygon class="cls-4" points="8.8 19.04 9.09 18.87 9.09 18.47 8.8 18.64 8.8 19.04"/><polygon class="cls-20" points="8.71 18.59 8.8 18.64 8.8 19.04 8.71 18.99 8.71 18.59"/><polygon class="cls-21" points="8.71 18.59 9.01 18.42 9.09 18.47 8.8 18.64 8.71 18.59"/><path class="cls-5" d="M5.62,16.74a.47.47,0,0,1,.21-.39l.87-.51a.15.15,0,0,1,.09,0,.12.12,0,0,0-.19-.07l-.87.51a.47.47,0,0,0-.21.39l-.1,1.61c0,.1,0,.17.11.17a.19.19,0,0,1,0-.08Z"/><path class="cls-2" d="M5.62,18.41l1-.57a.5.5,0,0,0,.2-.39V15.91a.22.22,0,0,0,0-.09.15.15,0,0,0-.09,0l-.87.51a.47.47,0,0,0-.21.39l-.1,1.61a.19.19,0,0,0,0,.08A.1.1,0,0,0,5.62,18.41Z"/><polygon class="cls-5" points="4.93 19.5 0.34 16.85 0.34 16.54 4.93 19.19 4.93 19.5"/><path class="cls-5" d="M4.19,19l-1.32-.77-1.8-1,0,.21L4.16,19.2Z"/><path class="cls-5" d="M1.13,17.61c0,.1,0,.22.05.33l2.9,1.68c0-.1,0-.19,0-.28Z"/><path class="cls-5" d="M1.24,18.34v0L4,20H4c0-.05,0-.12,0-.2L1.21,18.11C1.22,18.2,1.23,18.29,1.24,18.34Z"/><path class="cls-5" d="M1.66,19c.17.12.67.4,1,.57s.79.47,1,.55.3.1.36,0L1.3,18.55A.84.84,0,0,0,1.66,19Z"/><path class="cls-2" d="M1.21,18.11l2.84,1.64,0-.13-2.9-1.68Z"/><path class="cls-2" d="M4.16,19.2,1.1,17.44l0,.17,3,1.73Z"/><path class="cls-2" d="M1.3,18.55,4,20.09A.32.32,0,0,0,4,20L1.25,18.37A.53.53,0,0,0,1.3,18.55Z"/><path class="cls-4" d="M2.39,18.22a.51.51,0,0,0,.21.41c.11.06.21,0,.21-.16a.53.53,0,0,0-.21-.41C2.48,18,2.39,18.07,2.39,18.22Z"/><path class="cls-2" d="M.56,15.79a.49.49,0,0,0,.2.39l3.8,2.14c.12.07.21,0,.21-.15l.14-1.28L.71,14.46Z"/><path class="cls-5" d="M4.75,16.15,1,14c-.12-.06-.21,0-.21.16l0,.3,4.2,2.43,0-.35A.49.49,0,0,0,4.75,16.15Z"/><polygon class="cls-4" points="22.49 10.44 22.79 10.27 22.79 9.87 22.49 10.04 22.49 10.44"/><polygon class="cls-20" points="22.41 9.99 22.49 10.04 22.49 10.44 22.41 10.39 22.41 9.99"/><polygon class="cls-21" points="22.41 9.99 22.71 9.82 22.79 9.87 22.49 10.04 22.41 9.99"/><polygon class="cls-4" points="12.71 16.11 13.01 15.94 13.01 15.54 12.71 15.71 12.71 16.11"/><polygon class="cls-20" points="12.63 15.67 12.71 15.71 12.71 16.11 12.63 16.06 12.63 15.67"/><polygon class="cls-21" points="12.63 15.67 12.93 15.49 13.01 15.54 12.71 15.71 12.63 15.67"/></svg>