<svg id="Layer_1" data-name="Layer 1" xmlns="http://www.w3.org/2000/svg" viewBox="0 0 24 24"><defs><style>.cls-1{fill:#3cae73;}</style></defs><path class="cls-1" d="M19.47,15.67a10.3,10.3,0,0,0-3-2.1,7.42,7.42,0,1,0-8.36,0,10.31,10.31,0,0,0-3,2,10.17,10.17,0,0,0-3.12,7,1.45,1.45,0,0,0,.4,1,1.43,1.43,0,0,0,1,.44H21a1.42,1.42,0,0,0,1.42-1.48A10.16,10.16,0,0,0,19.47,15.67ZM4.24,21.82a8.19,8.19,0,0,1,2.39-4.71,8.08,8.08,0,0,1,5.61-2.26,8,8,0,0,1,5.69,2.36,8.08,8.08,0,0,1,2.29,4.61Zm8-19.64A5.25,5.25,0,1,1,7,7.43,5.26,5.26,0,0,1,12.27,2.18Z"/></svg>